<?xml version="1.0" encoding="utf-8" standalone="no"?>
<!DOCTYPE svg PUBLIC "-//W3C//DTD SVG 1.1//EN"
  "http://www.w3.org/Graphics/SVG/1.1/DTD/svg11.dtd">
<svg xmlns:xlink="http://www.w3.org/1999/xlink" width="1440pt" height="720pt" viewBox="0 0 1440 720" xmlns="http://www.w3.org/2000/svg" version="1.1">
 <metadata>
  <rdf:RDF xmlns:dc="http://purl.org/dc/elements/1.1/" xmlns:cc="http://creativecommons.org/ns#" xmlns:rdf="http://www.w3.org/1999/02/22-rdf-syntax-ns#">
   <cc:Work>
    <dc:type rdf:resource="http://purl.org/dc/dcmitype/StillImage"/>
    <dc:date>2025-08-01T05:33:28.695843</dc:date>
    <dc:format>image/svg+xml</dc:format>
    <dc:creator>
     <cc:Agent>
      <dc:title>Matplotlib v3.9.4, https://matplotlib.org/</dc:title>
     </cc:Agent>
    </dc:creator>
   </cc:Work>
  </rdf:RDF>
 </metadata>
 <defs>
  <style type="text/css">*{stroke-linejoin: round; stroke-linecap: butt}</style>
 </defs>
 <g id="figure_1">
  <g id="patch_1">
   <path d="M 0 720 
L 1440 720 
L 1440 0 
L 0 0 
z
" style="fill: #ffffff"/>
  </g>
  <g id="axes_1">
   <g id="patch_2">
    <path d="M 75.35 317.16 
L 719.84 317.16 
L 719.84 46.32 
L 75.35 46.32 
z
" style="fill: #ffffff"/>
   </g>
   <g id="matplotlib.axis_1">
    <g id="xtick_1">
     <g id="line2d_1">
      <defs>
       <path id="mfebad99688" d="M 0 0 
L 0 3.5 
" style="stroke: #000000; stroke-width: 0.8"/>
      </defs>
      <g>
       <use xlink:href="#mfebad99688" x="104.645" y="317.16" style="stroke: #000000; stroke-width: 0.8"/>
      </g>
     </g>
     <g id="text_1">
      <!-- 0.000 -->
      <g transform="translate(81.7425 336.3175) scale(0.16 -0.16)">
       <defs>
        <path id="DejaVuSans-30" d="M 2034 4250 
Q 1547 4250 1301 3770 
Q 1056 3291 1056 2328 
Q 1056 1369 1301 889 
Q 1547 409 2034 409 
Q 2525 409 2770 889 
Q 3016 1369 3016 2328 
Q 3016 3291 2770 3770 
Q 2525 4250 2034 4250 
z
M 2034 4750 
Q 2819 4750 3233 4129 
Q 3647 3509 3647 2328 
Q 3647 1150 3233 529 
Q 2819 -91 2034 -91 
Q 1250 -91 836 529 
Q 422 1150 422 2328 
Q 422 3509 836 4129 
Q 1250 4750 2034 4750 
z
" transform="scale(0.015625)"/>
        <path id="DejaVuSans-2e" d="M 684 794 
L 1344 794 
L 1344 0 
L 684 0 
L 684 794 
z
" transform="scale(0.015625)"/>
       </defs>
       <use xlink:href="#DejaVuSans-30"/>
       <use xlink:href="#DejaVuSans-2e" x="63.623047"/>
       <use xlink:href="#DejaVuSans-30" x="95.410156"/>
       <use xlink:href="#DejaVuSans-30" x="159.033203"/>
       <use xlink:href="#DejaVuSans-30" x="222.65625"/>
      </g>
     </g>
    </g>
    <g id="xtick_2">
     <g id="line2d_2">
      <g>
       <use xlink:href="#mfebad99688" x="177.8825" y="317.16" style="stroke: #000000; stroke-width: 0.8"/>
      </g>
     </g>
     <g id="text_2">
      <!-- 0.025 -->
      <g transform="translate(154.98 336.3175) scale(0.16 -0.16)">
       <defs>
        <path id="DejaVuSans-32" d="M 1228 531 
L 3431 531 
L 3431 0 
L 469 0 
L 469 531 
Q 828 903 1448 1529 
Q 2069 2156 2228 2338 
Q 2531 2678 2651 2914 
Q 2772 3150 2772 3378 
Q 2772 3750 2511 3984 
Q 2250 4219 1831 4219 
Q 1534 4219 1204 4116 
Q 875 4013 500 3803 
L 500 4441 
Q 881 4594 1212 4672 
Q 1544 4750 1819 4750 
Q 2544 4750 2975 4387 
Q 3406 4025 3406 3419 
Q 3406 3131 3298 2873 
Q 3191 2616 2906 2266 
Q 2828 2175 2409 1742 
Q 1991 1309 1228 531 
z
" transform="scale(0.015625)"/>
        <path id="DejaVuSans-35" d="M 691 4666 
L 3169 4666 
L 3169 4134 
L 1269 4134 
L 1269 2991 
Q 1406 3038 1543 3061 
Q 1681 3084 1819 3084 
Q 2600 3084 3056 2656 
Q 3513 2228 3513 1497 
Q 3513 744 3044 326 
Q 2575 -91 1722 -91 
Q 1428 -91 1123 -41 
Q 819 9 494 109 
L 494 744 
Q 775 591 1075 516 
Q 1375 441 1709 441 
Q 2250 441 2565 725 
Q 2881 1009 2881 1497 
Q 2881 1984 2565 2268 
Q 2250 2553 1709 2553 
Q 1456 2553 1204 2497 
Q 953 2441 691 2322 
L 691 4666 
z
" transform="scale(0.015625)"/>
       </defs>
       <use xlink:href="#DejaVuSans-30"/>
       <use xlink:href="#DejaVuSans-2e" x="63.623047"/>
       <use xlink:href="#DejaVuSans-30" x="95.410156"/>
       <use xlink:href="#DejaVuSans-32" x="159.033203"/>
       <use xlink:href="#DejaVuSans-35" x="222.65625"/>
      </g>
     </g>
    </g>
    <g id="xtick_3">
     <g id="line2d_3">
      <g>
       <use xlink:href="#mfebad99688" x="251.12" y="317.16" style="stroke: #000000; stroke-width: 0.8"/>
      </g>
     </g>
     <g id="text_3">
      <!-- 0.050 -->
      <g transform="translate(228.2175 336.3175) scale(0.16 -0.16)">
       <use xlink:href="#DejaVuSans-30"/>
       <use xlink:href="#DejaVuSans-2e" x="63.623047"/>
       <use xlink:href="#DejaVuSans-30" x="95.410156"/>
       <use xlink:href="#DejaVuSans-35" x="159.033203"/>
       <use xlink:href="#DejaVuSans-30" x="222.65625"/>
      </g>
     </g>
    </g>
    <g id="xtick_4">
     <g id="line2d_4">
      <g>
       <use xlink:href="#mfebad99688" x="324.3575" y="317.16" style="stroke: #000000; stroke-width: 0.8"/>
      </g>
     </g>
     <g id="text_4">
      <!-- 0.075 -->
      <g transform="translate(301.455 336.3175) scale(0.16 -0.16)">
       <defs>
        <path id="DejaVuSans-37" d="M 525 4666 
L 3525 4666 
L 3525 4397 
L 1831 0 
L 1172 0 
L 2766 4134 
L 525 4134 
L 525 4666 
z
" transform="scale(0.015625)"/>
       </defs>
       <use xlink:href="#DejaVuSans-30"/>
       <use xlink:href="#DejaVuSans-2e" x="63.623047"/>
       <use xlink:href="#DejaVuSans-30" x="95.410156"/>
       <use xlink:href="#DejaVuSans-37" x="159.033203"/>
       <use xlink:href="#DejaVuSans-35" x="222.65625"/>
      </g>
     </g>
    </g>
    <g id="xtick_5">
     <g id="line2d_5">
      <g>
       <use xlink:href="#mfebad99688" x="397.595" y="317.16" style="stroke: #000000; stroke-width: 0.8"/>
      </g>
     </g>
     <g id="text_5">
      <!-- 0.100 -->
      <g transform="translate(374.6925 336.3175) scale(0.16 -0.16)">
       <defs>
        <path id="DejaVuSans-31" d="M 794 531 
L 1825 531 
L 1825 4091 
L 703 3866 
L 703 4441 
L 1819 4666 
L 2450 4666 
L 2450 531 
L 3481 531 
L 3481 0 
L 794 0 
L 794 531 
z
" transform="scale(0.015625)"/>
       </defs>
       <use xlink:href="#DejaVuSans-30"/>
       <use xlink:href="#DejaVuSans-2e" x="63.623047"/>
       <use xlink:href="#DejaVuSans-31" x="95.410156"/>
       <use xlink:href="#DejaVuSans-30" x="159.033203"/>
       <use xlink:href="#DejaVuSans-30" x="222.65625"/>
      </g>
     </g>
    </g>
    <g id="xtick_6">
     <g id="line2d_6">
      <g>
       <use xlink:href="#mfebad99688" x="470.8325" y="317.16" style="stroke: #000000; stroke-width: 0.8"/>
      </g>
     </g>
     <g id="text_6">
      <!-- 0.125 -->
      <g transform="translate(447.93 336.3175) scale(0.16 -0.16)">
       <use xlink:href="#DejaVuSans-30"/>
       <use xlink:href="#DejaVuSans-2e" x="63.623047"/>
       <use xlink:href="#DejaVuSans-31" x="95.410156"/>
       <use xlink:href="#DejaVuSans-32" x="159.033203"/>
       <use xlink:href="#DejaVuSans-35" x="222.65625"/>
      </g>
     </g>
    </g>
    <g id="xtick_7">
     <g id="line2d_7">
      <g>
       <use xlink:href="#mfebad99688" x="544.07" y="317.16" style="stroke: #000000; stroke-width: 0.8"/>
      </g>
     </g>
     <g id="text_7">
      <!-- 0.150 -->
      <g transform="translate(521.1675 336.3175) scale(0.16 -0.16)">
       <use xlink:href="#DejaVuSans-30"/>
       <use xlink:href="#DejaVuSans-2e" x="63.623047"/>
       <use xlink:href="#DejaVuSans-31" x="95.410156"/>
       <use xlink:href="#DejaVuSans-35" x="159.033203"/>
       <use xlink:href="#DejaVuSans-30" x="222.65625"/>
      </g>
     </g>
    </g>
    <g id="xtick_8">
     <g id="line2d_8">
      <g>
       <use xlink:href="#mfebad99688" x="617.3075" y="317.16" style="stroke: #000000; stroke-width: 0.8"/>
      </g>
     </g>
     <g id="text_8">
      <!-- 0.175 -->
      <g transform="translate(594.405 336.3175) scale(0.16 -0.16)">
       <use xlink:href="#DejaVuSans-30"/>
       <use xlink:href="#DejaVuSans-2e" x="63.623047"/>
       <use xlink:href="#DejaVuSans-31" x="95.410156"/>
       <use xlink:href="#DejaVuSans-37" x="159.033203"/>
       <use xlink:href="#DejaVuSans-35" x="222.65625"/>
      </g>
     </g>
    </g>
    <g id="xtick_9">
     <g id="line2d_9">
      <g>
       <use xlink:href="#mfebad99688" x="690.545" y="317.16" style="stroke: #000000; stroke-width: 0.8"/>
      </g>
     </g>
     <g id="text_9">
      <!-- 0.200 -->
      <g transform="translate(667.6425 336.3175) scale(0.16 -0.16)">
       <use xlink:href="#DejaVuSans-30"/>
       <use xlink:href="#DejaVuSans-2e" x="63.623047"/>
       <use xlink:href="#DejaVuSans-32" x="95.410156"/>
       <use xlink:href="#DejaVuSans-30" x="159.033203"/>
       <use xlink:href="#DejaVuSans-30" x="222.65625"/>
      </g>
     </g>
    </g>
   </g>
   <g id="matplotlib.axis_2">
    <g id="ytick_1">
     <g id="line2d_10">
      <defs>
       <path id="m75b749ab5a" d="M 0 0 
L -3.5 0 
" style="stroke: #000000; stroke-width: 0.8"/>
      </defs>
      <g>
       <use xlink:href="#m75b749ab5a" x="75.35" y="277.136897" style="stroke: #000000; stroke-width: 0.8"/>
      </g>
     </g>
     <g id="text_10">
      <!-- 0.2 -->
      <g transform="translate(42.905 283.215647) scale(0.16 -0.16)">
       <use xlink:href="#DejaVuSans-30"/>
       <use xlink:href="#DejaVuSans-2e" x="63.623047"/>
       <use xlink:href="#DejaVuSans-32" x="95.410156"/>
      </g>
     </g>
    </g>
    <g id="ytick_2">
     <g id="line2d_11">
      <g>
       <use xlink:href="#m75b749ab5a" x="75.35" y="236.164687" style="stroke: #000000; stroke-width: 0.8"/>
      </g>
     </g>
     <g id="text_11">
      <!-- 0.4 -->
      <g transform="translate(42.905 242.243437) scale(0.16 -0.16)">
       <defs>
        <path id="DejaVuSans-34" d="M 2419 4116 
L 825 1625 
L 2419 1625 
L 2419 4116 
z
M 2253 4666 
L 3047 4666 
L 3047 1625 
L 3713 1625 
L 3713 1100 
L 3047 1100 
L 3047 0 
L 2419 0 
L 2419 1100 
L 313 1100 
L 313 1709 
L 2253 4666 
z
" transform="scale(0.015625)"/>
       </defs>
       <use xlink:href="#DejaVuSans-30"/>
       <use xlink:href="#DejaVuSans-2e" x="63.623047"/>
       <use xlink:href="#DejaVuSans-34" x="95.410156"/>
      </g>
     </g>
    </g>
    <g id="ytick_3">
     <g id="line2d_12">
      <g>
       <use xlink:href="#m75b749ab5a" x="75.35" y="195.192477" style="stroke: #000000; stroke-width: 0.8"/>
      </g>
     </g>
     <g id="text_12">
      <!-- 0.6 -->
      <g transform="translate(42.905 201.271227) scale(0.16 -0.16)">
       <defs>
        <path id="DejaVuSans-36" d="M 2113 2584 
Q 1688 2584 1439 2293 
Q 1191 2003 1191 1497 
Q 1191 994 1439 701 
Q 1688 409 2113 409 
Q 2538 409 2786 701 
Q 3034 994 3034 1497 
Q 3034 2003 2786 2293 
Q 2538 2584 2113 2584 
z
M 3366 4563 
L 3366 3988 
Q 3128 4100 2886 4159 
Q 2644 4219 2406 4219 
Q 1781 4219 1451 3797 
Q 1122 3375 1075 2522 
Q 1259 2794 1537 2939 
Q 1816 3084 2150 3084 
Q 2853 3084 3261 2657 
Q 3669 2231 3669 1497 
Q 3669 778 3244 343 
Q 2819 -91 2113 -91 
Q 1303 -91 875 529 
Q 447 1150 447 2328 
Q 447 3434 972 4092 
Q 1497 4750 2381 4750 
Q 2619 4750 2861 4703 
Q 3103 4656 3366 4563 
z
" transform="scale(0.015625)"/>
       </defs>
       <use xlink:href="#DejaVuSans-30"/>
       <use xlink:href="#DejaVuSans-2e" x="63.623047"/>
       <use xlink:href="#DejaVuSans-36" x="95.410156"/>
      </g>
     </g>
    </g>
    <g id="ytick_4">
     <g id="line2d_13">
      <g>
       <use xlink:href="#m75b749ab5a" x="75.35" y="154.220267" style="stroke: #000000; stroke-width: 0.8"/>
      </g>
     </g>
     <g id="text_13">
      <!-- 0.8 -->
      <g transform="translate(42.905 160.299017) scale(0.16 -0.16)">
       <defs>
        <path id="DejaVuSans-38" d="M 2034 2216 
Q 1584 2216 1326 1975 
Q 1069 1734 1069 1313 
Q 1069 891 1326 650 
Q 1584 409 2034 409 
Q 2484 409 2743 651 
Q 3003 894 3003 1313 
Q 3003 1734 2745 1975 
Q 2488 2216 2034 2216 
z
M 1403 2484 
Q 997 2584 770 2862 
Q 544 3141 544 3541 
Q 544 4100 942 4425 
Q 1341 4750 2034 4750 
Q 2731 4750 3128 4425 
Q 3525 4100 3525 3541 
Q 3525 3141 3298 2862 
Q 3072 2584 2669 2484 
Q 3125 2378 3379 2068 
Q 3634 1759 3634 1313 
Q 3634 634 3220 271 
Q 2806 -91 2034 -91 
Q 1263 -91 848 271 
Q 434 634 434 1313 
Q 434 1759 690 2068 
Q 947 2378 1403 2484 
z
M 1172 3481 
Q 1172 3119 1398 2916 
Q 1625 2713 2034 2713 
Q 2441 2713 2670 2916 
Q 2900 3119 2900 3481 
Q 2900 3844 2670 4047 
Q 2441 4250 2034 4250 
Q 1625 4250 1398 4047 
Q 1172 3844 1172 3481 
z
" transform="scale(0.015625)"/>
       </defs>
       <use xlink:href="#DejaVuSans-30"/>
       <use xlink:href="#DejaVuSans-2e" x="63.623047"/>
       <use xlink:href="#DejaVuSans-38" x="95.410156"/>
      </g>
     </g>
    </g>
    <g id="ytick_5">
     <g id="line2d_14">
      <g>
       <use xlink:href="#m75b749ab5a" x="75.35" y="113.248057" style="stroke: #000000; stroke-width: 0.8"/>
      </g>
     </g>
     <g id="text_14">
      <!-- 1.0 -->
      <g transform="translate(42.905 119.326807) scale(0.16 -0.16)">
       <use xlink:href="#DejaVuSans-31"/>
       <use xlink:href="#DejaVuSans-2e" x="63.623047"/>
       <use xlink:href="#DejaVuSans-30" x="95.410156"/>
      </g>
     </g>
    </g>
    <g id="ytick_6">
     <g id="line2d_15">
      <g>
       <use xlink:href="#m75b749ab5a" x="75.35" y="72.275847" style="stroke: #000000; stroke-width: 0.8"/>
      </g>
     </g>
     <g id="text_15">
      <!-- 1.2 -->
      <g transform="translate(42.905 78.354597) scale(0.16 -0.16)">
       <use xlink:href="#DejaVuSans-31"/>
       <use xlink:href="#DejaVuSans-2e" x="63.623047"/>
       <use xlink:href="#DejaVuSans-32" x="95.410156"/>
      </g>
     </g>
    </g>
    <g id="text_16">
     <!-- MSE -->
     <g transform="translate(35.161562 200.905781) rotate(-90) scale(0.18 -0.18)">
      <defs>
       <path id="DejaVuSans-4d" d="M 628 4666 
L 1569 4666 
L 2759 1491 
L 3956 4666 
L 4897 4666 
L 4897 0 
L 4281 0 
L 4281 4097 
L 3078 897 
L 2444 897 
L 1241 4097 
L 1241 0 
L 628 0 
L 628 4666 
z
" transform="scale(0.015625)"/>
       <path id="DejaVuSans-53" d="M 3425 4513 
L 3425 3897 
Q 3066 4069 2747 4153 
Q 2428 4238 2131 4238 
Q 1616 4238 1336 4038 
Q 1056 3838 1056 3469 
Q 1056 3159 1242 3001 
Q 1428 2844 1947 2747 
L 2328 2669 
Q 3034 2534 3370 2195 
Q 3706 1856 3706 1288 
Q 3706 609 3251 259 
Q 2797 -91 1919 -91 
Q 1588 -91 1214 -16 
Q 841 59 441 206 
L 441 856 
Q 825 641 1194 531 
Q 1563 422 1919 422 
Q 2459 422 2753 634 
Q 3047 847 3047 1241 
Q 3047 1584 2836 1778 
Q 2625 1972 2144 2069 
L 1759 2144 
Q 1053 2284 737 2584 
Q 422 2884 422 3419 
Q 422 4038 858 4394 
Q 1294 4750 2059 4750 
Q 2388 4750 2728 4690 
Q 3069 4631 3425 4513 
z
" transform="scale(0.015625)"/>
       <path id="DejaVuSans-45" d="M 628 4666 
L 3578 4666 
L 3578 4134 
L 1259 4134 
L 1259 2753 
L 3481 2753 
L 3481 2222 
L 1259 2222 
L 1259 531 
L 3634 531 
L 3634 0 
L 628 0 
L 628 4666 
z
" transform="scale(0.015625)"/>
      </defs>
      <use xlink:href="#DejaVuSans-4d"/>
      <use xlink:href="#DejaVuSans-53" x="86.279297"/>
      <use xlink:href="#DejaVuSans-45" x="149.755859"/>
     </g>
    </g>
   </g>
   <g id="line2d_16">
    <path d="M 104.645 220.091877 
L 110.515741 274.274329 
L 111.68989 306.183762 
L 112.864038 313.68944 
L 115.212335 314.58406 
L 116.386483 314.505751 
L 117.560631 314.722701 
L 119.908928 314.536128 
L 121.083076 314.625654 
L 122.257224 314.512665 
L 123.431373 314.645046 
L 126.953818 314.525679 
L 128.127966 314.633181 
L 130.476263 314.514324 
L 132.824559 314.55296 
L 136.347004 314.554118 
L 146.914339 314.514038 
L 170.397305 314.488998 
L 244.368647 314.477745 
L 320.688287 314.469715 
L 422.839188 314.466892 
L 495.636383 314.466873 
L 690.545 314.464834 
L 690.545 314.464834 
" clip-path="url(#p14c2163c9c)" style="fill: none; stroke: #000000; stroke-width: 2; stroke-linecap: square"/>
   </g>
   <g id="line2d_17">
    <path d="M 104.645 220.091877 
L 118.73478 302.790286 
L 119.908928 306.400093 
L 121.083076 307.833151 
L 123.431373 309.45062 
L 130.476263 314.067317 
L 131.650411 314.545345 
L 135.172856 314.934672 
L 141.043597 315.160168 
L 145.74019 315.149399 
L 158.655822 314.97716 
L 175.093898 314.991819 
L 227.930571 315.032142 
L 690.545 315.0311 
L 690.545 315.0311 
" clip-path="url(#p14c2163c9c)" style="fill: none; stroke-dasharray: 2,3.3; stroke-dashoffset: 0; stroke: #000000; stroke-width: 2"/>
   </g>
   <g id="line2d_18">
    <path d="M 104.645 220.091877 
L 118.73478 304.462134 
L 119.908928 306.911072 
L 122.257224 308.978925 
L 130.476263 314.513636 
L 131.650411 314.777659 
L 136.347004 315.063142 
L 142.217745 315.272191 
L 180.964639 315.042636 
L 306.598507 315.031101 
L 690.545 315.0311 
L 690.545 315.0311 
" clip-path="url(#p14c2163c9c)" style="fill: none; stroke-dasharray: 7.4,3.2; stroke-dashoffset: 0; stroke: #000000; stroke-width: 2"/>
   </g>
   <g id="patch_3">
    <path d="M 75.35 317.16 
L 75.35 46.32 
" style="fill: none; stroke: #000000; stroke-width: 0.8; stroke-linejoin: miter; stroke-linecap: square"/>
   </g>
   <g id="patch_4">
    <path d="M 719.84 317.16 
L 719.84 46.32 
" style="fill: none; stroke: #000000; stroke-width: 0.8; stroke-linejoin: miter; stroke-linecap: square"/>
   </g>
   <g id="patch_5">
    <path d="M 75.35 317.16 
L 719.84 317.16 
" style="fill: none; stroke: #000000; stroke-width: 0.8; stroke-linejoin: miter; stroke-linecap: square"/>
   </g>
   <g id="patch_6">
    <path d="M 75.35 46.32 
L 719.84 46.32 
" style="fill: none; stroke: #000000; stroke-width: 0.8; stroke-linejoin: miter; stroke-linecap: square"/>
   </g>
   <g id="text_17">
    <!-- 5 fixed, 500 random coefficients -->
    <g transform="translate(203.174375 40.32) scale(0.24 -0.24)">
     <defs>
      <path id="DejaVuSans-20" transform="scale(0.015625)"/>
      <path id="DejaVuSans-66" d="M 2375 4863 
L 2375 4384 
L 1825 4384 
Q 1516 4384 1395 4259 
Q 1275 4134 1275 3809 
L 1275 3500 
L 2222 3500 
L 2222 3053 
L 1275 3053 
L 1275 0 
L 697 0 
L 697 3053 
L 147 3053 
L 147 3500 
L 697 3500 
L 697 3744 
Q 697 4328 969 4595 
Q 1241 4863 1831 4863 
L 2375 4863 
z
" transform="scale(0.015625)"/>
      <path id="DejaVuSans-69" d="M 603 3500 
L 1178 3500 
L 1178 0 
L 603 0 
L 603 3500 
z
M 603 4863 
L 1178 4863 
L 1178 4134 
L 603 4134 
L 603 4863 
z
" transform="scale(0.015625)"/>
      <path id="DejaVuSans-78" d="M 3513 3500 
L 2247 1797 
L 3578 0 
L 2900 0 
L 1881 1375 
L 863 0 
L 184 0 
L 1544 1831 
L 300 3500 
L 978 3500 
L 1906 2253 
L 2834 3500 
L 3513 3500 
z
" transform="scale(0.015625)"/>
      <path id="DejaVuSans-65" d="M 3597 1894 
L 3597 1613 
L 953 1613 
Q 991 1019 1311 708 
Q 1631 397 2203 397 
Q 2534 397 2845 478 
Q 3156 559 3463 722 
L 3463 178 
Q 3153 47 2828 -22 
Q 2503 -91 2169 -91 
Q 1331 -91 842 396 
Q 353 884 353 1716 
Q 353 2575 817 3079 
Q 1281 3584 2069 3584 
Q 2775 3584 3186 3129 
Q 3597 2675 3597 1894 
z
M 3022 2063 
Q 3016 2534 2758 2815 
Q 2500 3097 2075 3097 
Q 1594 3097 1305 2825 
Q 1016 2553 972 2059 
L 3022 2063 
z
" transform="scale(0.015625)"/>
      <path id="DejaVuSans-64" d="M 2906 2969 
L 2906 4863 
L 3481 4863 
L 3481 0 
L 2906 0 
L 2906 525 
Q 2725 213 2448 61 
Q 2172 -91 1784 -91 
Q 1150 -91 751 415 
Q 353 922 353 1747 
Q 353 2572 751 3078 
Q 1150 3584 1784 3584 
Q 2172 3584 2448 3432 
Q 2725 3281 2906 2969 
z
M 947 1747 
Q 947 1113 1208 752 
Q 1469 391 1925 391 
Q 2381 391 2643 752 
Q 2906 1113 2906 1747 
Q 2906 2381 2643 2742 
Q 2381 3103 1925 3103 
Q 1469 3103 1208 2742 
Q 947 2381 947 1747 
z
" transform="scale(0.015625)"/>
      <path id="DejaVuSans-2c" d="M 750 794 
L 1409 794 
L 1409 256 
L 897 -744 
L 494 -744 
L 750 256 
L 750 794 
z
" transform="scale(0.015625)"/>
      <path id="DejaVuSans-72" d="M 2631 2963 
Q 2534 3019 2420 3045 
Q 2306 3072 2169 3072 
Q 1681 3072 1420 2755 
Q 1159 2438 1159 1844 
L 1159 0 
L 581 0 
L 581 3500 
L 1159 3500 
L 1159 2956 
Q 1341 3275 1631 3429 
Q 1922 3584 2338 3584 
Q 2397 3584 2469 3576 
Q 2541 3569 2628 3553 
L 2631 2963 
z
" transform="scale(0.015625)"/>
      <path id="DejaVuSans-61" d="M 2194 1759 
Q 1497 1759 1228 1600 
Q 959 1441 959 1056 
Q 959 750 1161 570 
Q 1363 391 1709 391 
Q 2188 391 2477 730 
Q 2766 1069 2766 1631 
L 2766 1759 
L 2194 1759 
z
M 3341 1997 
L 3341 0 
L 2766 0 
L 2766 531 
Q 2569 213 2275 61 
Q 1981 -91 1556 -91 
Q 1019 -91 701 211 
Q 384 513 384 1019 
Q 384 1609 779 1909 
Q 1175 2209 1959 2209 
L 2766 2209 
L 2766 2266 
Q 2766 2663 2505 2880 
Q 2244 3097 1772 3097 
Q 1472 3097 1187 3025 
Q 903 2953 641 2809 
L 641 3341 
Q 956 3463 1253 3523 
Q 1550 3584 1831 3584 
Q 2591 3584 2966 3190 
Q 3341 2797 3341 1997 
z
" transform="scale(0.015625)"/>
      <path id="DejaVuSans-6e" d="M 3513 2113 
L 3513 0 
L 2938 0 
L 2938 2094 
Q 2938 2591 2744 2837 
Q 2550 3084 2163 3084 
Q 1697 3084 1428 2787 
Q 1159 2491 1159 1978 
L 1159 0 
L 581 0 
L 581 3500 
L 1159 3500 
L 1159 2956 
Q 1366 3272 1645 3428 
Q 1925 3584 2291 3584 
Q 2894 3584 3203 3211 
Q 3513 2838 3513 2113 
z
" transform="scale(0.015625)"/>
      <path id="DejaVuSans-6f" d="M 1959 3097 
Q 1497 3097 1228 2736 
Q 959 2375 959 1747 
Q 959 1119 1226 758 
Q 1494 397 1959 397 
Q 2419 397 2687 759 
Q 2956 1122 2956 1747 
Q 2956 2369 2687 2733 
Q 2419 3097 1959 3097 
z
M 1959 3584 
Q 2709 3584 3137 3096 
Q 3566 2609 3566 1747 
Q 3566 888 3137 398 
Q 2709 -91 1959 -91 
Q 1206 -91 779 398 
Q 353 888 353 1747 
Q 353 2609 779 3096 
Q 1206 3584 1959 3584 
z
" transform="scale(0.015625)"/>
      <path id="DejaVuSans-6d" d="M 3328 2828 
Q 3544 3216 3844 3400 
Q 4144 3584 4550 3584 
Q 5097 3584 5394 3201 
Q 5691 2819 5691 2113 
L 5691 0 
L 5113 0 
L 5113 2094 
Q 5113 2597 4934 2840 
Q 4756 3084 4391 3084 
Q 3944 3084 3684 2787 
Q 3425 2491 3425 1978 
L 3425 0 
L 2847 0 
L 2847 2094 
Q 2847 2600 2669 2842 
Q 2491 3084 2119 3084 
Q 1678 3084 1418 2786 
Q 1159 2488 1159 1978 
L 1159 0 
L 581 0 
L 581 3500 
L 1159 3500 
L 1159 2956 
Q 1356 3278 1631 3431 
Q 1906 3584 2284 3584 
Q 2666 3584 2933 3390 
Q 3200 3197 3328 2828 
z
" transform="scale(0.015625)"/>
      <path id="DejaVuSans-63" d="M 3122 3366 
L 3122 2828 
Q 2878 2963 2633 3030 
Q 2388 3097 2138 3097 
Q 1578 3097 1268 2742 
Q 959 2388 959 1747 
Q 959 1106 1268 751 
Q 1578 397 2138 397 
Q 2388 397 2633 464 
Q 2878 531 3122 666 
L 3122 134 
Q 2881 22 2623 -34 
Q 2366 -91 2075 -91 
Q 1284 -91 818 406 
Q 353 903 353 1747 
Q 353 2603 823 3093 
Q 1294 3584 2113 3584 
Q 2378 3584 2631 3529 
Q 2884 3475 3122 3366 
z
" transform="scale(0.015625)"/>
      <path id="DejaVuSans-74" d="M 1172 4494 
L 1172 3500 
L 2356 3500 
L 2356 3053 
L 1172 3053 
L 1172 1153 
Q 1172 725 1289 603 
Q 1406 481 1766 481 
L 2356 481 
L 2356 0 
L 1766 0 
Q 1100 0 847 248 
Q 594 497 594 1153 
L 594 3053 
L 172 3053 
L 172 3500 
L 594 3500 
L 594 4494 
L 1172 4494 
z
" transform="scale(0.015625)"/>
      <path id="DejaVuSans-73" d="M 2834 3397 
L 2834 2853 
Q 2591 2978 2328 3040 
Q 2066 3103 1784 3103 
Q 1356 3103 1142 2972 
Q 928 2841 928 2578 
Q 928 2378 1081 2264 
Q 1234 2150 1697 2047 
L 1894 2003 
Q 2506 1872 2764 1633 
Q 3022 1394 3022 966 
Q 3022 478 2636 193 
Q 2250 -91 1575 -91 
Q 1294 -91 989 -36 
Q 684 19 347 128 
L 347 722 
Q 666 556 975 473 
Q 1284 391 1588 391 
Q 1994 391 2212 530 
Q 2431 669 2431 922 
Q 2431 1156 2273 1281 
Q 2116 1406 1581 1522 
L 1381 1569 
Q 847 1681 609 1914 
Q 372 2147 372 2553 
Q 372 3047 722 3315 
Q 1072 3584 1716 3584 
Q 2034 3584 2315 3537 
Q 2597 3491 2834 3397 
z
" transform="scale(0.015625)"/>
     </defs>
     <use xlink:href="#DejaVuSans-35"/>
     <use xlink:href="#DejaVuSans-20" x="63.623047"/>
     <use xlink:href="#DejaVuSans-66" x="95.410156"/>
     <use xlink:href="#DejaVuSans-69" x="130.615234"/>
     <use xlink:href="#DejaVuSans-78" x="158.398438"/>
     <use xlink:href="#DejaVuSans-65" x="214.453125"/>
     <use xlink:href="#DejaVuSans-64" x="275.976562"/>
     <use xlink:href="#DejaVuSans-2c" x="339.453125"/>
     <use xlink:href="#DejaVuSans-20" x="371.240234"/>
     <use xlink:href="#DejaVuSans-35" x="403.027344"/>
     <use xlink:href="#DejaVuSans-30" x="466.650391"/>
     <use xlink:href="#DejaVuSans-30" x="530.273438"/>
     <use xlink:href="#DejaVuSans-20" x="593.896484"/>
     <use xlink:href="#DejaVuSans-72" x="625.683594"/>
     <use xlink:href="#DejaVuSans-61" x="666.796875"/>
     <use xlink:href="#DejaVuSans-6e" x="728.076172"/>
     <use xlink:href="#DejaVuSans-64" x="791.455078"/>
     <use xlink:href="#DejaVuSans-6f" x="854.931641"/>
     <use xlink:href="#DejaVuSans-6d" x="916.113281"/>
     <use xlink:href="#DejaVuSans-20" x="1013.525391"/>
     <use xlink:href="#DejaVuSans-63" x="1045.3125"/>
     <use xlink:href="#DejaVuSans-6f" x="1100.292969"/>
     <use xlink:href="#DejaVuSans-65" x="1161.474609"/>
     <use xlink:href="#DejaVuSans-66" x="1222.998047"/>
     <use xlink:href="#DejaVuSans-66" x="1258.203125"/>
     <use xlink:href="#DejaVuSans-69" x="1293.408203"/>
     <use xlink:href="#DejaVuSans-63" x="1321.191406"/>
     <use xlink:href="#DejaVuSans-69" x="1376.171875"/>
     <use xlink:href="#DejaVuSans-65" x="1403.955078"/>
     <use xlink:href="#DejaVuSans-6e" x="1465.478516"/>
     <use xlink:href="#DejaVuSans-74" x="1528.857422"/>
     <use xlink:href="#DejaVuSans-73" x="1568.066406"/>
    </g>
   </g>
   <g id="legend_1">
    <g id="patch_7">
     <path d="M 583.136875 150.38875 
L 705.84 150.38875 
Q 709.84 150.38875 709.84 146.38875 
L 709.84 60.32 
Q 709.84 56.32 705.84 56.32 
L 583.136875 56.32 
Q 579.136875 56.32 579.136875 60.32 
L 579.136875 146.38875 
Q 579.136875 150.38875 583.136875 150.38875 
z
" style="fill: #ffffff; opacity: 0.8; stroke: #cccccc; stroke-linejoin: miter"/>
    </g>
    <g id="line2d_19">
     <path d="M 587.136875 72.516875 
L 607.136875 72.516875 
L 627.136875 72.516875 
" style="fill: none; stroke: #000000; stroke-width: 2; stroke-linecap: square"/>
    </g>
    <g id="text_18">
     <!-- S-LCA -->
     <g transform="translate(643.136875 79.516875) scale(0.2 -0.2)">
      <defs>
       <path id="DejaVuSans-2d" d="M 313 2009 
L 1997 2009 
L 1997 1497 
L 313 1497 
L 313 2009 
z
" transform="scale(0.015625)"/>
       <path id="DejaVuSans-4c" d="M 628 4666 
L 1259 4666 
L 1259 531 
L 3531 531 
L 3531 0 
L 628 0 
L 628 4666 
z
" transform="scale(0.015625)"/>
       <path id="DejaVuSans-43" d="M 4122 4306 
L 4122 3641 
Q 3803 3938 3442 4084 
Q 3081 4231 2675 4231 
Q 1875 4231 1450 3742 
Q 1025 3253 1025 2328 
Q 1025 1406 1450 917 
Q 1875 428 2675 428 
Q 3081 428 3442 575 
Q 3803 722 4122 1019 
L 4122 359 
Q 3791 134 3420 21 
Q 3050 -91 2638 -91 
Q 1578 -91 968 557 
Q 359 1206 359 2328 
Q 359 3453 968 4101 
Q 1578 4750 2638 4750 
Q 3056 4750 3426 4639 
Q 3797 4528 4122 4306 
z
" transform="scale(0.015625)"/>
       <path id="DejaVuSans-41" d="M 2188 4044 
L 1331 1722 
L 3047 1722 
L 2188 4044 
z
M 1831 4666 
L 2547 4666 
L 4325 0 
L 3669 0 
L 3244 1197 
L 1141 1197 
L 716 0 
L 50 0 
L 1831 4666 
z
" transform="scale(0.015625)"/>
      </defs>
      <use xlink:href="#DejaVuSans-53"/>
      <use xlink:href="#DejaVuSans-2d" x="63.476562"/>
      <use xlink:href="#DejaVuSans-4c" x="99.560547"/>
      <use xlink:href="#DejaVuSans-43" x="155.273438"/>
      <use xlink:href="#DejaVuSans-41" x="225.097656"/>
     </g>
    </g>
    <g id="line2d_20">
     <path d="M 587.136875 101.873125 
L 607.136875 101.873125 
L 627.136875 101.873125 
" style="fill: none; stroke-dasharray: 2,3.3; stroke-dashoffset: 0; stroke: #000000; stroke-width: 2"/>
    </g>
    <g id="text_19">
     <!-- FISTA -->
     <g transform="translate(643.136875 108.873125) scale(0.2 -0.2)">
      <defs>
       <path id="DejaVuSans-46" d="M 628 4666 
L 3309 4666 
L 3309 4134 
L 1259 4134 
L 1259 2759 
L 3109 2759 
L 3109 2228 
L 1259 2228 
L 1259 0 
L 628 0 
L 628 4666 
z
" transform="scale(0.015625)"/>
       <path id="DejaVuSans-49" d="M 628 4666 
L 1259 4666 
L 1259 0 
L 628 0 
L 628 4666 
z
" transform="scale(0.015625)"/>
       <path id="DejaVuSans-54" d="M -19 4666 
L 3928 4666 
L 3928 4134 
L 2272 4134 
L 2272 0 
L 1638 0 
L 1638 4134 
L -19 4134 
L -19 4666 
z
" transform="scale(0.015625)"/>
      </defs>
      <use xlink:href="#DejaVuSans-46"/>
      <use xlink:href="#DejaVuSans-49" x="57.519531"/>
      <use xlink:href="#DejaVuSans-53" x="87.011719"/>
      <use xlink:href="#DejaVuSans-54" x="150.488281"/>
      <use xlink:href="#DejaVuSans-41" x="203.822266"/>
     </g>
    </g>
    <g id="line2d_21">
     <path d="M 587.136875 131.229375 
L 607.136875 131.229375 
L 627.136875 131.229375 
" style="fill: none; stroke-dasharray: 7.4,3.2; stroke-dashoffset: 0; stroke: #000000; stroke-width: 2"/>
    </g>
    <g id="text_20">
     <!-- ISTA -->
     <g transform="translate(643.136875 138.229375) scale(0.2 -0.2)">
      <use xlink:href="#DejaVuSans-49"/>
      <use xlink:href="#DejaVuSans-53" x="29.492188"/>
      <use xlink:href="#DejaVuSans-54" x="92.96875"/>
      <use xlink:href="#DejaVuSans-41" x="146.302734"/>
     </g>
    </g>
   </g>
  </g>
  <g id="axes_2">
   <g id="patch_8">
    <path d="M 773.91 317.16 
L 1418.4 317.16 
L 1418.4 46.32 
L 773.91 46.32 
z
" style="fill: #ffffff"/>
   </g>
   <g id="matplotlib.axis_3">
    <g id="xtick_10">
     <g id="line2d_22">
      <g>
       <use xlink:href="#mfebad99688" x="803.205" y="317.16" style="stroke: #000000; stroke-width: 0.8"/>
      </g>
     </g>
     <g id="text_21">
      <!-- 0.000 -->
      <g transform="translate(780.3025 336.3175) scale(0.16 -0.16)">
       <use xlink:href="#DejaVuSans-30"/>
       <use xlink:href="#DejaVuSans-2e" x="63.623047"/>
       <use xlink:href="#DejaVuSans-30" x="95.410156"/>
       <use xlink:href="#DejaVuSans-30" x="159.033203"/>
       <use xlink:href="#DejaVuSans-30" x="222.65625"/>
      </g>
     </g>
    </g>
    <g id="xtick_11">
     <g id="line2d_23">
      <g>
       <use xlink:href="#mfebad99688" x="876.4425" y="317.16" style="stroke: #000000; stroke-width: 0.8"/>
      </g>
     </g>
     <g id="text_22">
      <!-- 0.025 -->
      <g transform="translate(853.54 336.3175) scale(0.16 -0.16)">
       <use xlink:href="#DejaVuSans-30"/>
       <use xlink:href="#DejaVuSans-2e" x="63.623047"/>
       <use xlink:href="#DejaVuSans-30" x="95.410156"/>
       <use xlink:href="#DejaVuSans-32" x="159.033203"/>
       <use xlink:href="#DejaVuSans-35" x="222.65625"/>
      </g>
     </g>
    </g>
    <g id="xtick_12">
     <g id="line2d_24">
      <g>
       <use xlink:href="#mfebad99688" x="949.68" y="317.16" style="stroke: #000000; stroke-width: 0.8"/>
      </g>
     </g>
     <g id="text_23">
      <!-- 0.050 -->
      <g transform="translate(926.7775 336.3175) scale(0.16 -0.16)">
       <use xlink:href="#DejaVuSans-30"/>
       <use xlink:href="#DejaVuSans-2e" x="63.623047"/>
       <use xlink:href="#DejaVuSans-30" x="95.410156"/>
       <use xlink:href="#DejaVuSans-35" x="159.033203"/>
       <use xlink:href="#DejaVuSans-30" x="222.65625"/>
      </g>
     </g>
    </g>
    <g id="xtick_13">
     <g id="line2d_25">
      <g>
       <use xlink:href="#mfebad99688" x="1022.9175" y="317.16" style="stroke: #000000; stroke-width: 0.8"/>
      </g>
     </g>
     <g id="text_24">
      <!-- 0.075 -->
      <g transform="translate(1000.015 336.3175) scale(0.16 -0.16)">
       <use xlink:href="#DejaVuSans-30"/>
       <use xlink:href="#DejaVuSans-2e" x="63.623047"/>
       <use xlink:href="#DejaVuSans-30" x="95.410156"/>
       <use xlink:href="#DejaVuSans-37" x="159.033203"/>
       <use xlink:href="#DejaVuSans-35" x="222.65625"/>
      </g>
     </g>
    </g>
    <g id="xtick_14">
     <g id="line2d_26">
      <g>
       <use xlink:href="#mfebad99688" x="1096.155" y="317.16" style="stroke: #000000; stroke-width: 0.8"/>
      </g>
     </g>
     <g id="text_25">
      <!-- 0.100 -->
      <g transform="translate(1073.2525 336.3175) scale(0.16 -0.16)">
       <use xlink:href="#DejaVuSans-30"/>
       <use xlink:href="#DejaVuSans-2e" x="63.623047"/>
       <use xlink:href="#DejaVuSans-31" x="95.410156"/>
       <use xlink:href="#DejaVuSans-30" x="159.033203"/>
       <use xlink:href="#DejaVuSans-30" x="222.65625"/>
      </g>
     </g>
    </g>
    <g id="xtick_15">
     <g id="line2d_27">
      <g>
       <use xlink:href="#mfebad99688" x="1169.3925" y="317.16" style="stroke: #000000; stroke-width: 0.8"/>
      </g>
     </g>
     <g id="text_26">
      <!-- 0.125 -->
      <g transform="translate(1146.49 336.3175) scale(0.16 -0.16)">
       <use xlink:href="#DejaVuSans-30"/>
       <use xlink:href="#DejaVuSans-2e" x="63.623047"/>
       <use xlink:href="#DejaVuSans-31" x="95.410156"/>
       <use xlink:href="#DejaVuSans-32" x="159.033203"/>
       <use xlink:href="#DejaVuSans-35" x="222.65625"/>
      </g>
     </g>
    </g>
    <g id="xtick_16">
     <g id="line2d_28">
      <g>
       <use xlink:href="#mfebad99688" x="1242.63" y="317.16" style="stroke: #000000; stroke-width: 0.8"/>
      </g>
     </g>
     <g id="text_27">
      <!-- 0.150 -->
      <g transform="translate(1219.7275 336.3175) scale(0.16 -0.16)">
       <use xlink:href="#DejaVuSans-30"/>
       <use xlink:href="#DejaVuSans-2e" x="63.623047"/>
       <use xlink:href="#DejaVuSans-31" x="95.410156"/>
       <use xlink:href="#DejaVuSans-35" x="159.033203"/>
       <use xlink:href="#DejaVuSans-30" x="222.65625"/>
      </g>
     </g>
    </g>
    <g id="xtick_17">
     <g id="line2d_29">
      <g>
       <use xlink:href="#mfebad99688" x="1315.8675" y="317.16" style="stroke: #000000; stroke-width: 0.8"/>
      </g>
     </g>
     <g id="text_28">
      <!-- 0.175 -->
      <g transform="translate(1292.965 336.3175) scale(0.16 -0.16)">
       <use xlink:href="#DejaVuSans-30"/>
       <use xlink:href="#DejaVuSans-2e" x="63.623047"/>
       <use xlink:href="#DejaVuSans-31" x="95.410156"/>
       <use xlink:href="#DejaVuSans-37" x="159.033203"/>
       <use xlink:href="#DejaVuSans-35" x="222.65625"/>
      </g>
     </g>
    </g>
    <g id="xtick_18">
     <g id="line2d_30">
      <g>
       <use xlink:href="#mfebad99688" x="1389.105" y="317.16" style="stroke: #000000; stroke-width: 0.8"/>
      </g>
     </g>
     <g id="text_29">
      <!-- 0.200 -->
      <g transform="translate(1366.2025 336.3175) scale(0.16 -0.16)">
       <use xlink:href="#DejaVuSans-30"/>
       <use xlink:href="#DejaVuSans-2e" x="63.623047"/>
       <use xlink:href="#DejaVuSans-32" x="95.410156"/>
       <use xlink:href="#DejaVuSans-30" x="159.033203"/>
       <use xlink:href="#DejaVuSans-30" x="222.65625"/>
      </g>
     </g>
    </g>
   </g>
   <g id="matplotlib.axis_4">
    <g id="ytick_7">
     <g id="line2d_31">
      <g>
       <use xlink:href="#m75b749ab5a" x="773.91" y="277.136897" style="stroke: #000000; stroke-width: 0.8"/>
      </g>
     </g>
     <g id="text_30">
      <!-- 0.2 -->
      <g transform="translate(741.465 283.215647) scale(0.16 -0.16)">
       <use xlink:href="#DejaVuSans-30"/>
       <use xlink:href="#DejaVuSans-2e" x="63.623047"/>
       <use xlink:href="#DejaVuSans-32" x="95.410156"/>
      </g>
     </g>
    </g>
    <g id="ytick_8">
     <g id="line2d_32">
      <g>
       <use xlink:href="#m75b749ab5a" x="773.91" y="236.164687" style="stroke: #000000; stroke-width: 0.8"/>
      </g>
     </g>
     <g id="text_31">
      <!-- 0.4 -->
      <g transform="translate(741.465 242.243437) scale(0.16 -0.16)">
       <use xlink:href="#DejaVuSans-30"/>
       <use xlink:href="#DejaVuSans-2e" x="63.623047"/>
       <use xlink:href="#DejaVuSans-34" x="95.410156"/>
      </g>
     </g>
    </g>
    <g id="ytick_9">
     <g id="line2d_33">
      <g>
       <use xlink:href="#m75b749ab5a" x="773.91" y="195.192477" style="stroke: #000000; stroke-width: 0.8"/>
      </g>
     </g>
     <g id="text_32">
      <!-- 0.6 -->
      <g transform="translate(741.465 201.271227) scale(0.16 -0.16)">
       <use xlink:href="#DejaVuSans-30"/>
       <use xlink:href="#DejaVuSans-2e" x="63.623047"/>
       <use xlink:href="#DejaVuSans-36" x="95.410156"/>
      </g>
     </g>
    </g>
    <g id="ytick_10">
     <g id="line2d_34">
      <g>
       <use xlink:href="#m75b749ab5a" x="773.91" y="154.220267" style="stroke: #000000; stroke-width: 0.8"/>
      </g>
     </g>
     <g id="text_33">
      <!-- 0.8 -->
      <g transform="translate(741.465 160.299017) scale(0.16 -0.16)">
       <use xlink:href="#DejaVuSans-30"/>
       <use xlink:href="#DejaVuSans-2e" x="63.623047"/>
       <use xlink:href="#DejaVuSans-38" x="95.410156"/>
      </g>
     </g>
    </g>
    <g id="ytick_11">
     <g id="line2d_35">
      <g>
       <use xlink:href="#m75b749ab5a" x="773.91" y="113.248057" style="stroke: #000000; stroke-width: 0.8"/>
      </g>
     </g>
     <g id="text_34">
      <!-- 1.0 -->
      <g transform="translate(741.465 119.326807) scale(0.16 -0.16)">
       <use xlink:href="#DejaVuSans-31"/>
       <use xlink:href="#DejaVuSans-2e" x="63.623047"/>
       <use xlink:href="#DejaVuSans-30" x="95.410156"/>
      </g>
     </g>
    </g>
    <g id="ytick_12">
     <g id="line2d_36">
      <g>
       <use xlink:href="#m75b749ab5a" x="773.91" y="72.275847" style="stroke: #000000; stroke-width: 0.8"/>
      </g>
     </g>
     <g id="text_35">
      <!-- 1.2 -->
      <g transform="translate(741.465 78.354597) scale(0.16 -0.16)">
       <use xlink:href="#DejaVuSans-31"/>
       <use xlink:href="#DejaVuSans-2e" x="63.623047"/>
       <use xlink:href="#DejaVuSans-32" x="95.410156"/>
      </g>
     </g>
    </g>
   </g>
   <g id="line2d_37">
    <path d="M 803.205 140.027797 
L 809.075741 217.429167 
L 810.24989 237.336662 
L 811.424038 302.265608 
L 812.598186 305.469199 
L 813.772335 307.824823 
L 816.120631 307.743994 
L 817.29478 308.105822 
L 818.468928 308.164458 
L 819.643076 308.602697 
L 820.817224 308.549069 
L 823.165521 308.671876 
L 824.339669 308.524661 
L 833.732856 308.690866 
L 834.907004 308.603499 
L 837.255301 308.704174 
L 1032.163918 308.747791 
L 1049.776142 308.744369 
L 1057.99518 308.753464 
L 1069.736663 308.747825 
L 1088.523036 308.754647 
L 1137.837265 308.751671 
L 1257.600391 308.753108 
L 1338.616623 308.751154 
L 1376.189369 308.754903 
L 1389.105 308.752297 
L 1389.105 308.752297 
" clip-path="url(#p141365bf7b)" style="fill: none; stroke: #000000; stroke-width: 2; stroke-linecap: square"/>
   </g>
   <g id="line2d_38">
    <path d="M 803.205 140.027797 
L 819.643076 286.204535 
L 820.817224 293.500228 
L 821.991373 296.614384 
L 823.165521 298.226255 
L 826.687966 301.785684 
L 836.081152 310.977193 
L 837.255301 311.617738 
L 839.603597 312.474483 
L 841.951894 312.988755 
L 852.519228 314.802239 
L 856.041673 315.027686 
L 863.086563 315.204266 
L 878.350491 315.433199 
L 901.833457 315.505592 
L 1389.105 315.462101 
L 1389.105 315.462101 
" clip-path="url(#p141365bf7b)" style="fill: none; stroke-dasharray: 2,3.3; stroke-dashoffset: 0; stroke: #000000; stroke-width: 2"/>
   </g>
   <g id="line2d_39">
    <path d="M 803.205 140.027797 
L 819.643076 285.883025 
L 820.817224 294.088067 
L 821.991373 296.84221 
L 823.165521 298.23302 
L 831.384559 306.501703 
L 834.907004 309.998504 
L 836.081152 311.038184 
L 837.255301 311.877147 
L 838.429449 312.316315 
L 841.951894 312.923222 
L 852.519228 314.554315 
L 854.867525 314.714034 
L 872.479749 315.217532 
L 900.659309 315.405046 
L 976.978948 315.460705 
L 1389.105 315.462101 
L 1389.105 315.462101 
" clip-path="url(#p141365bf7b)" style="fill: none; stroke-dasharray: 7.4,3.2; stroke-dashoffset: 0; stroke: #000000; stroke-width: 2"/>
   </g>
   <g id="patch_9">
    <path d="M 773.91 317.16 
L 773.91 46.32 
" style="fill: none; stroke: #000000; stroke-width: 0.8; stroke-linejoin: miter; stroke-linecap: square"/>
   </g>
   <g id="patch_10">
    <path d="M 1418.4 317.16 
L 1418.4 46.32 
" style="fill: none; stroke: #000000; stroke-width: 0.8; stroke-linejoin: miter; stroke-linecap: square"/>
   </g>
   <g id="patch_11">
    <path d="M 773.91 317.16 
L 1418.4 317.16 
" style="fill: none; stroke: #000000; stroke-width: 0.8; stroke-linejoin: miter; stroke-linecap: square"/>
   </g>
   <g id="patch_12">
    <path d="M 773.91 46.32 
L 1418.4 46.32 
" style="fill: none; stroke: #000000; stroke-width: 0.8; stroke-linejoin: miter; stroke-linecap: square"/>
   </g>
   <g id="text_36">
    <!-- 10 fixed, 500 random coefficients -->
    <g transform="translate(894.099375 40.32) scale(0.24 -0.24)">
     <use xlink:href="#DejaVuSans-31"/>
     <use xlink:href="#DejaVuSans-30" x="63.623047"/>
     <use xlink:href="#DejaVuSans-20" x="127.246094"/>
     <use xlink:href="#DejaVuSans-66" x="159.033203"/>
     <use xlink:href="#DejaVuSans-69" x="194.238281"/>
     <use xlink:href="#DejaVuSans-78" x="222.021484"/>
     <use xlink:href="#DejaVuSans-65" x="278.076172"/>
     <use xlink:href="#DejaVuSans-64" x="339.599609"/>
     <use xlink:href="#DejaVuSans-2c" x="403.076172"/>
     <use xlink:href="#DejaVuSans-20" x="434.863281"/>
     <use xlink:href="#DejaVuSans-35" x="466.650391"/>
     <use xlink:href="#DejaVuSans-30" x="530.273438"/>
     <use xlink:href="#DejaVuSans-30" x="593.896484"/>
     <use xlink:href="#DejaVuSans-20" x="657.519531"/>
     <use xlink:href="#DejaVuSans-72" x="689.306641"/>
     <use xlink:href="#DejaVuSans-61" x="730.419922"/>
     <use xlink:href="#DejaVuSans-6e" x="791.699219"/>
     <use xlink:href="#DejaVuSans-64" x="855.078125"/>
     <use xlink:href="#DejaVuSans-6f" x="918.554688"/>
     <use xlink:href="#DejaVuSans-6d" x="979.736328"/>
     <use xlink:href="#DejaVuSans-20" x="1077.148438"/>
     <use xlink:href="#DejaVuSans-63" x="1108.935547"/>
     <use xlink:href="#DejaVuSans-6f" x="1163.916016"/>
     <use xlink:href="#DejaVuSans-65" x="1225.097656"/>
     <use xlink:href="#DejaVuSans-66" x="1286.621094"/>
     <use xlink:href="#DejaVuSans-66" x="1321.826172"/>
     <use xlink:href="#DejaVuSans-69" x="1357.03125"/>
     <use xlink:href="#DejaVuSans-63" x="1384.814453"/>
     <use xlink:href="#DejaVuSans-69" x="1439.794922"/>
     <use xlink:href="#DejaVuSans-65" x="1467.578125"/>
     <use xlink:href="#DejaVuSans-6e" x="1529.101562"/>
     <use xlink:href="#DejaVuSans-74" x="1592.480469"/>
     <use xlink:href="#DejaVuSans-73" x="1631.689453"/>
    </g>
   </g>
   <g id="legend_2">
    <g id="patch_13">
     <path d="M 1281.696875 150.38875 
L 1404.4 150.38875 
Q 1408.4 150.38875 1408.4 146.38875 
L 1408.4 60.32 
Q 1408.4 56.32 1404.4 56.32 
L 1281.696875 56.32 
Q 1277.696875 56.32 1277.696875 60.32 
L 1277.696875 146.38875 
Q 1277.696875 150.38875 1281.696875 150.38875 
z
" style="fill: #ffffff; opacity: 0.8; stroke: #cccccc; stroke-linejoin: miter"/>
    </g>
    <g id="line2d_40">
     <path d="M 1285.696875 72.516875 
L 1305.696875 72.516875 
L 1325.696875 72.516875 
" style="fill: none; stroke: #000000; stroke-width: 2; stroke-linecap: square"/>
    </g>
    <g id="text_37">
     <!-- S-LCA -->
     <g transform="translate(1341.696875 79.516875) scale(0.2 -0.2)">
      <use xlink:href="#DejaVuSans-53"/>
      <use xlink:href="#DejaVuSans-2d" x="63.476562"/>
      <use xlink:href="#DejaVuSans-4c" x="99.560547"/>
      <use xlink:href="#DejaVuSans-43" x="155.273438"/>
      <use xlink:href="#DejaVuSans-41" x="225.097656"/>
     </g>
    </g>
    <g id="line2d_41">
     <path d="M 1285.696875 101.873125 
L 1305.696875 101.873125 
L 1325.696875 101.873125 
" style="fill: none; stroke-dasharray: 2,3.3; stroke-dashoffset: 0; stroke: #000000; stroke-width: 2"/>
    </g>
    <g id="text_38">
     <!-- FISTA -->
     <g transform="translate(1341.696875 108.873125) scale(0.2 -0.2)">
      <use xlink:href="#DejaVuSans-46"/>
      <use xlink:href="#DejaVuSans-49" x="57.519531"/>
      <use xlink:href="#DejaVuSans-53" x="87.011719"/>
      <use xlink:href="#DejaVuSans-54" x="150.488281"/>
      <use xlink:href="#DejaVuSans-41" x="203.822266"/>
     </g>
    </g>
    <g id="line2d_42">
     <path d="M 1285.696875 131.229375 
L 1305.696875 131.229375 
L 1325.696875 131.229375 
" style="fill: none; stroke-dasharray: 7.4,3.2; stroke-dashoffset: 0; stroke: #000000; stroke-width: 2"/>
    </g>
    <g id="text_39">
     <!-- ISTA -->
     <g transform="translate(1341.696875 138.229375) scale(0.2 -0.2)">
      <use xlink:href="#DejaVuSans-49"/>
      <use xlink:href="#DejaVuSans-53" x="29.492188"/>
      <use xlink:href="#DejaVuSans-54" x="92.96875"/>
      <use xlink:href="#DejaVuSans-41" x="146.302734"/>
     </g>
    </g>
   </g>
  </g>
  <g id="axes_3">
   <g id="patch_14">
    <path d="M 75.35 655.72 
L 719.84 655.72 
L 719.84 384.88 
L 75.35 384.88 
z
" style="fill: #ffffff"/>
   </g>
   <g id="matplotlib.axis_5">
    <g id="xtick_19">
     <g id="line2d_43">
      <g>
       <use xlink:href="#mfebad99688" x="104.645" y="655.72" style="stroke: #000000; stroke-width: 0.8"/>
      </g>
     </g>
     <g id="text_40">
      <!-- 0.000 -->
      <g transform="translate(81.7425 674.8775) scale(0.16 -0.16)">
       <use xlink:href="#DejaVuSans-30"/>
       <use xlink:href="#DejaVuSans-2e" x="63.623047"/>
       <use xlink:href="#DejaVuSans-30" x="95.410156"/>
       <use xlink:href="#DejaVuSans-30" x="159.033203"/>
       <use xlink:href="#DejaVuSans-30" x="222.65625"/>
      </g>
     </g>
    </g>
    <g id="xtick_20">
     <g id="line2d_44">
      <g>
       <use xlink:href="#mfebad99688" x="177.8825" y="655.72" style="stroke: #000000; stroke-width: 0.8"/>
      </g>
     </g>
     <g id="text_41">
      <!-- 0.025 -->
      <g transform="translate(154.98 674.8775) scale(0.16 -0.16)">
       <use xlink:href="#DejaVuSans-30"/>
       <use xlink:href="#DejaVuSans-2e" x="63.623047"/>
       <use xlink:href="#DejaVuSans-30" x="95.410156"/>
       <use xlink:href="#DejaVuSans-32" x="159.033203"/>
       <use xlink:href="#DejaVuSans-35" x="222.65625"/>
      </g>
     </g>
    </g>
    <g id="xtick_21">
     <g id="line2d_45">
      <g>
       <use xlink:href="#mfebad99688" x="251.12" y="655.72" style="stroke: #000000; stroke-width: 0.8"/>
      </g>
     </g>
     <g id="text_42">
      <!-- 0.050 -->
      <g transform="translate(228.2175 674.8775) scale(0.16 -0.16)">
       <use xlink:href="#DejaVuSans-30"/>
       <use xlink:href="#DejaVuSans-2e" x="63.623047"/>
       <use xlink:href="#DejaVuSans-30" x="95.410156"/>
       <use xlink:href="#DejaVuSans-35" x="159.033203"/>
       <use xlink:href="#DejaVuSans-30" x="222.65625"/>
      </g>
     </g>
    </g>
    <g id="xtick_22">
     <g id="line2d_46">
      <g>
       <use xlink:href="#mfebad99688" x="324.3575" y="655.72" style="stroke: #000000; stroke-width: 0.8"/>
      </g>
     </g>
     <g id="text_43">
      <!-- 0.075 -->
      <g transform="translate(301.455 674.8775) scale(0.16 -0.16)">
       <use xlink:href="#DejaVuSans-30"/>
       <use xlink:href="#DejaVuSans-2e" x="63.623047"/>
       <use xlink:href="#DejaVuSans-30" x="95.410156"/>
       <use xlink:href="#DejaVuSans-37" x="159.033203"/>
       <use xlink:href="#DejaVuSans-35" x="222.65625"/>
      </g>
     </g>
    </g>
    <g id="xtick_23">
     <g id="line2d_47">
      <g>
       <use xlink:href="#mfebad99688" x="397.595" y="655.72" style="stroke: #000000; stroke-width: 0.8"/>
      </g>
     </g>
     <g id="text_44">
      <!-- 0.100 -->
      <g transform="translate(374.6925 674.8775) scale(0.16 -0.16)">
       <use xlink:href="#DejaVuSans-30"/>
       <use xlink:href="#DejaVuSans-2e" x="63.623047"/>
       <use xlink:href="#DejaVuSans-31" x="95.410156"/>
       <use xlink:href="#DejaVuSans-30" x="159.033203"/>
       <use xlink:href="#DejaVuSans-30" x="222.65625"/>
      </g>
     </g>
    </g>
    <g id="xtick_24">
     <g id="line2d_48">
      <g>
       <use xlink:href="#mfebad99688" x="470.8325" y="655.72" style="stroke: #000000; stroke-width: 0.8"/>
      </g>
     </g>
     <g id="text_45">
      <!-- 0.125 -->
      <g transform="translate(447.93 674.8775) scale(0.16 -0.16)">
       <use xlink:href="#DejaVuSans-30"/>
       <use xlink:href="#DejaVuSans-2e" x="63.623047"/>
       <use xlink:href="#DejaVuSans-31" x="95.410156"/>
       <use xlink:href="#DejaVuSans-32" x="159.033203"/>
       <use xlink:href="#DejaVuSans-35" x="222.65625"/>
      </g>
     </g>
    </g>
    <g id="xtick_25">
     <g id="line2d_49">
      <g>
       <use xlink:href="#mfebad99688" x="544.07" y="655.72" style="stroke: #000000; stroke-width: 0.8"/>
      </g>
     </g>
     <g id="text_46">
      <!-- 0.150 -->
      <g transform="translate(521.1675 674.8775) scale(0.16 -0.16)">
       <use xlink:href="#DejaVuSans-30"/>
       <use xlink:href="#DejaVuSans-2e" x="63.623047"/>
       <use xlink:href="#DejaVuSans-31" x="95.410156"/>
       <use xlink:href="#DejaVuSans-35" x="159.033203"/>
       <use xlink:href="#DejaVuSans-30" x="222.65625"/>
      </g>
     </g>
    </g>
    <g id="xtick_26">
     <g id="line2d_50">
      <g>
       <use xlink:href="#mfebad99688" x="617.3075" y="655.72" style="stroke: #000000; stroke-width: 0.8"/>
      </g>
     </g>
     <g id="text_47">
      <!-- 0.175 -->
      <g transform="translate(594.405 674.8775) scale(0.16 -0.16)">
       <use xlink:href="#DejaVuSans-30"/>
       <use xlink:href="#DejaVuSans-2e" x="63.623047"/>
       <use xlink:href="#DejaVuSans-31" x="95.410156"/>
       <use xlink:href="#DejaVuSans-37" x="159.033203"/>
       <use xlink:href="#DejaVuSans-35" x="222.65625"/>
      </g>
     </g>
    </g>
    <g id="xtick_27">
     <g id="line2d_51">
      <g>
       <use xlink:href="#mfebad99688" x="690.545" y="655.72" style="stroke: #000000; stroke-width: 0.8"/>
      </g>
     </g>
     <g id="text_48">
      <!-- 0.200 -->
      <g transform="translate(667.6425 674.8775) scale(0.16 -0.16)">
       <use xlink:href="#DejaVuSans-30"/>
       <use xlink:href="#DejaVuSans-2e" x="63.623047"/>
       <use xlink:href="#DejaVuSans-32" x="95.410156"/>
       <use xlink:href="#DejaVuSans-30" x="159.033203"/>
       <use xlink:href="#DejaVuSans-30" x="222.65625"/>
      </g>
     </g>
    </g>
    <g id="text_49">
     <!-- Time (s) -->
     <g transform="translate(361.002969 695.882187) scale(0.18 -0.18)">
      <defs>
       <path id="DejaVuSans-28" d="M 1984 4856 
Q 1566 4138 1362 3434 
Q 1159 2731 1159 2009 
Q 1159 1288 1364 580 
Q 1569 -128 1984 -844 
L 1484 -844 
Q 1016 -109 783 600 
Q 550 1309 550 2009 
Q 550 2706 781 3412 
Q 1013 4119 1484 4856 
L 1984 4856 
z
" transform="scale(0.015625)"/>
       <path id="DejaVuSans-29" d="M 513 4856 
L 1013 4856 
Q 1481 4119 1714 3412 
Q 1947 2706 1947 2009 
Q 1947 1309 1714 600 
Q 1481 -109 1013 -844 
L 513 -844 
Q 928 -128 1133 580 
Q 1338 1288 1338 2009 
Q 1338 2731 1133 3434 
Q 928 4138 513 4856 
z
" transform="scale(0.015625)"/>
      </defs>
      <use xlink:href="#DejaVuSans-54"/>
      <use xlink:href="#DejaVuSans-69" x="57.958984"/>
      <use xlink:href="#DejaVuSans-6d" x="85.742188"/>
      <use xlink:href="#DejaVuSans-65" x="183.154297"/>
      <use xlink:href="#DejaVuSans-20" x="244.677734"/>
      <use xlink:href="#DejaVuSans-28" x="276.464844"/>
      <use xlink:href="#DejaVuSans-73" x="315.478516"/>
      <use xlink:href="#DejaVuSans-29" x="367.578125"/>
     </g>
    </g>
   </g>
   <g id="matplotlib.axis_6">
    <g id="ytick_13">
     <g id="line2d_52">
      <g>
       <use xlink:href="#m75b749ab5a" x="75.35" y="615.696897" style="stroke: #000000; stroke-width: 0.8"/>
      </g>
     </g>
     <g id="text_50">
      <!-- 0.2 -->
      <g transform="translate(42.905 621.775647) scale(0.16 -0.16)">
       <use xlink:href="#DejaVuSans-30"/>
       <use xlink:href="#DejaVuSans-2e" x="63.623047"/>
       <use xlink:href="#DejaVuSans-32" x="95.410156"/>
      </g>
     </g>
    </g>
    <g id="ytick_14">
     <g id="line2d_53">
      <g>
       <use xlink:href="#m75b749ab5a" x="75.35" y="574.724687" style="stroke: #000000; stroke-width: 0.8"/>
      </g>
     </g>
     <g id="text_51">
      <!-- 0.4 -->
      <g transform="translate(42.905 580.803437) scale(0.16 -0.16)">
       <use xlink:href="#DejaVuSans-30"/>
       <use xlink:href="#DejaVuSans-2e" x="63.623047"/>
       <use xlink:href="#DejaVuSans-34" x="95.410156"/>
      </g>
     </g>
    </g>
    <g id="ytick_15">
     <g id="line2d_54">
      <g>
       <use xlink:href="#m75b749ab5a" x="75.35" y="533.752477" style="stroke: #000000; stroke-width: 0.8"/>
      </g>
     </g>
     <g id="text_52">
      <!-- 0.6 -->
      <g transform="translate(42.905 539.831227) scale(0.16 -0.16)">
       <use xlink:href="#DejaVuSans-30"/>
       <use xlink:href="#DejaVuSans-2e" x="63.623047"/>
       <use xlink:href="#DejaVuSans-36" x="95.410156"/>
      </g>
     </g>
    </g>
    <g id="ytick_16">
     <g id="line2d_55">
      <g>
       <use xlink:href="#m75b749ab5a" x="75.35" y="492.780267" style="stroke: #000000; stroke-width: 0.8"/>
      </g>
     </g>
     <g id="text_53">
      <!-- 0.8 -->
      <g transform="translate(42.905 498.859017) scale(0.16 -0.16)">
       <use xlink:href="#DejaVuSans-30"/>
       <use xlink:href="#DejaVuSans-2e" x="63.623047"/>
       <use xlink:href="#DejaVuSans-38" x="95.410156"/>
      </g>
     </g>
    </g>
    <g id="ytick_17">
     <g id="line2d_56">
      <g>
       <use xlink:href="#m75b749ab5a" x="75.35" y="451.808057" style="stroke: #000000; stroke-width: 0.8"/>
      </g>
     </g>
     <g id="text_54">
      <!-- 1.0 -->
      <g transform="translate(42.905 457.886807) scale(0.16 -0.16)">
       <use xlink:href="#DejaVuSans-31"/>
       <use xlink:href="#DejaVuSans-2e" x="63.623047"/>
       <use xlink:href="#DejaVuSans-30" x="95.410156"/>
      </g>
     </g>
    </g>
    <g id="ytick_18">
     <g id="line2d_57">
      <g>
       <use xlink:href="#m75b749ab5a" x="75.35" y="410.835847" style="stroke: #000000; stroke-width: 0.8"/>
      </g>
     </g>
     <g id="text_55">
      <!-- 1.2 -->
      <g transform="translate(42.905 416.914597) scale(0.16 -0.16)">
       <use xlink:href="#DejaVuSans-31"/>
       <use xlink:href="#DejaVuSans-2e" x="63.623047"/>
       <use xlink:href="#DejaVuSans-32" x="95.410156"/>
      </g>
     </g>
    </g>
    <g id="text_56">
     <!-- MSE -->
     <g transform="translate(35.161562 539.465781) rotate(-90) scale(0.18 -0.18)">
      <use xlink:href="#DejaVuSans-4d"/>
      <use xlink:href="#DejaVuSans-53" x="86.279297"/>
      <use xlink:href="#DejaVuSans-45" x="149.755859"/>
     </g>
    </g>
   </g>
   <g id="line2d_58">
    <path d="M 104.645 480.654016 
L 117.560631 564.941395 
L 118.73478 573.808557 
L 119.908928 589.711656 
L 121.083076 612.2538 
L 122.257224 631.276998 
L 123.431373 639.069456 
L 124.605521 640.782419 
L 125.779669 644.145006 
L 126.953818 645.276007 
L 128.127966 645.610929 
L 129.302114 646.782427 
L 130.476263 646.196793 
L 131.650411 647.431336 
L 132.824559 646.740556 
L 135.172856 647.570427 
L 136.347004 647.101103 
L 137.521152 647.860292 
L 138.695301 647.263069 
L 139.869449 647.633352 
L 142.217745 647.498554 
L 143.391894 647.874761 
L 144.566042 647.510233 
L 145.74019 647.914985 
L 146.914339 647.594781 
L 148.088487 647.596954 
L 149.262635 647.813962 
L 150.436784 647.603173 
L 151.610932 647.987928 
L 152.78508 647.666605 
L 153.959228 648.041254 
L 155.133377 647.725333 
L 156.307525 647.735763 
L 157.481673 647.924308 
L 158.655822 647.645757 
L 159.82997 647.977917 
L 161.004118 647.784941 
L 162.178267 647.890944 
L 164.526563 647.747162 
L 165.700711 648.022457 
L 166.87486 647.722677 
L 168.049008 647.933147 
L 169.223156 647.782157 
L 171.571453 647.911194 
L 172.745601 647.782186 
L 173.919749 647.921534 
L 175.093898 647.803509 
L 176.268046 647.942904 
L 177.442194 647.818196 
L 179.790491 647.979717 
L 180.964639 647.743081 
L 182.138788 647.9797 
L 183.312936 647.819811 
L 185.661232 647.872034 
L 188.009529 647.969125 
L 189.183677 647.750799 
L 190.357826 647.91972 
L 191.531974 647.823643 
L 193.880271 647.937302 
L 195.054419 647.792634 
L 196.228567 647.968723 
L 197.402715 647.794874 
L 198.576864 647.926832 
L 200.92516 647.874544 
L 202.099309 647.942696 
L 203.273457 647.802658 
L 204.447605 647.975299 
L 205.621754 647.81725 
L 207.97005 647.916336 
L 209.144198 647.819801 
L 210.318347 647.967159 
L 211.492495 647.811135 
L 212.666643 647.966491 
L 213.840792 647.821483 
L 215.01494 647.904808 
L 219.711533 647.85573 
L 220.885681 647.979071 
L 223.233978 647.863745 
L 226.756423 647.94841 
L 227.930571 647.856741 
L 229.104719 647.947852 
L 230.278868 647.83091 
L 231.453016 647.909037 
L 233.801313 647.861351 
L 234.975461 647.938655 
L 238.497906 647.849575 
L 240.846202 647.887022 
L 259.632575 647.860554 
L 261.980872 647.874251 
L 287.812134 647.858091 
L 292.508727 647.87983 
L 300.727766 647.867185 
L 318.33999 647.879293 
L 338.300511 647.859959 
L 341.822956 647.875297 
L 348.867846 647.878861 
L 366.48007 647.87929 
L 377.047405 647.873996 
L 388.788888 647.867185 
L 415.794299 647.881021 
L 421.66504 647.867596 
L 440.451413 647.887139 
L 445.148006 647.863212 
L 448.670451 647.896782 
L 452.192896 647.87184 
L 461.586082 647.845763 
L 463.934379 647.854205 
L 468.630972 647.878521 
L 475.675862 647.859034 
L 480.372455 647.864457 
L 510.900311 647.869251 
L 522.641794 647.868754 
L 690.545 647.871005 
L 690.545 647.871005 
" clip-path="url(#p860f32d607)" style="fill: none; stroke: #000000; stroke-width: 2; stroke-linecap: square"/>
   </g>
   <g id="line2d_59">
    <path d="M 104.645 480.654016 
L 137.521152 617.640778 
L 138.695301 621.84152 
L 139.869449 624.789533 
L 141.043597 626.953432 
L 142.217745 628.300528 
L 144.566042 630.076749 
L 170.397305 647.280337 
L 172.745601 648.58296 
L 175.093898 649.498575 
L 177.442194 650.057218 
L 180.964639 650.678889 
L 205.621754 654.336612 
L 210.318347 654.700767 
L 217.363236 654.928804 
L 245.542796 655.42542 
L 310.120952 655.629211 
L 397.007926 655.66103 
L 690.545 655.642458 
L 690.545 655.642458 
" clip-path="url(#p860f32d607)" style="fill: none; stroke-dasharray: 2,3.3; stroke-dashoffset: 0; stroke: #000000; stroke-width: 2"/>
   </g>
   <g id="line2d_60">
    <path d="M 104.645 480.654016 
L 136.347004 613.692907 
L 137.521152 618.017341 
L 138.695301 621.823393 
L 139.869449 624.954519 
L 141.043597 627.105527 
L 142.217745 628.51467 
L 143.391894 629.461015 
L 153.959228 636.529964 
L 168.049008 645.802274 
L 171.571453 647.883604 
L 173.919749 648.964083 
L 176.268046 649.741033 
L 179.790491 650.412963 
L 204.447605 653.65284 
L 209.144198 654.075885 
L 215.01494 654.337449 
L 243.194499 655.130568 
L 264.329168 655.348295 
L 291.334579 655.481433 
L 353.564439 655.588304 
L 530.860832 655.637938 
L 690.545 655.642123 
L 690.545 655.642123 
" clip-path="url(#p860f32d607)" style="fill: none; stroke-dasharray: 7.4,3.2; stroke-dashoffset: 0; stroke: #000000; stroke-width: 2"/>
   </g>
   <g id="patch_15">
    <path d="M 75.35 655.72 
L 75.35 384.88 
" style="fill: none; stroke: #000000; stroke-width: 0.8; stroke-linejoin: miter; stroke-linecap: square"/>
   </g>
   <g id="patch_16">
    <path d="M 719.84 655.72 
L 719.84 384.88 
" style="fill: none; stroke: #000000; stroke-width: 0.8; stroke-linejoin: miter; stroke-linecap: square"/>
   </g>
   <g id="patch_17">
    <path d="M 75.35 655.72 
L 719.84 655.72 
" style="fill: none; stroke: #000000; stroke-width: 0.8; stroke-linejoin: miter; stroke-linecap: square"/>
   </g>
   <g id="patch_18">
    <path d="M 75.35 384.88 
L 719.84 384.88 
" style="fill: none; stroke: #000000; stroke-width: 0.8; stroke-linejoin: miter; stroke-linecap: square"/>
   </g>
   <g id="text_57">
    <!-- 10 fixed, 1000 random coefficients -->
    <g transform="translate(187.904375 378.88) scale(0.24 -0.24)">
     <use xlink:href="#DejaVuSans-31"/>
     <use xlink:href="#DejaVuSans-30" x="63.623047"/>
     <use xlink:href="#DejaVuSans-20" x="127.246094"/>
     <use xlink:href="#DejaVuSans-66" x="159.033203"/>
     <use xlink:href="#DejaVuSans-69" x="194.238281"/>
     <use xlink:href="#DejaVuSans-78" x="222.021484"/>
     <use xlink:href="#DejaVuSans-65" x="278.076172"/>
     <use xlink:href="#DejaVuSans-64" x="339.599609"/>
     <use xlink:href="#DejaVuSans-2c" x="403.076172"/>
     <use xlink:href="#DejaVuSans-20" x="434.863281"/>
     <use xlink:href="#DejaVuSans-31" x="466.650391"/>
     <use xlink:href="#DejaVuSans-30" x="530.273438"/>
     <use xlink:href="#DejaVuSans-30" x="593.896484"/>
     <use xlink:href="#DejaVuSans-30" x="657.519531"/>
     <use xlink:href="#DejaVuSans-20" x="721.142578"/>
     <use xlink:href="#DejaVuSans-72" x="752.929688"/>
     <use xlink:href="#DejaVuSans-61" x="794.042969"/>
     <use xlink:href="#DejaVuSans-6e" x="855.322266"/>
     <use xlink:href="#DejaVuSans-64" x="918.701172"/>
     <use xlink:href="#DejaVuSans-6f" x="982.177734"/>
     <use xlink:href="#DejaVuSans-6d" x="1043.359375"/>
     <use xlink:href="#DejaVuSans-20" x="1140.771484"/>
     <use xlink:href="#DejaVuSans-63" x="1172.558594"/>
     <use xlink:href="#DejaVuSans-6f" x="1227.539062"/>
     <use xlink:href="#DejaVuSans-65" x="1288.720703"/>
     <use xlink:href="#DejaVuSans-66" x="1350.244141"/>
     <use xlink:href="#DejaVuSans-66" x="1385.449219"/>
     <use xlink:href="#DejaVuSans-69" x="1420.654297"/>
     <use xlink:href="#DejaVuSans-63" x="1448.4375"/>
     <use xlink:href="#DejaVuSans-69" x="1503.417969"/>
     <use xlink:href="#DejaVuSans-65" x="1531.201172"/>
     <use xlink:href="#DejaVuSans-6e" x="1592.724609"/>
     <use xlink:href="#DejaVuSans-74" x="1656.103516"/>
     <use xlink:href="#DejaVuSans-73" x="1695.3125"/>
    </g>
   </g>
   <g id="legend_3">
    <g id="patch_19">
     <path d="M 583.136875 488.94875 
L 705.84 488.94875 
Q 709.84 488.94875 709.84 484.94875 
L 709.84 398.88 
Q 709.84 394.88 705.84 394.88 
L 583.136875 394.88 
Q 579.136875 394.88 579.136875 398.88 
L 579.136875 484.94875 
Q 579.136875 488.94875 583.136875 488.94875 
z
" style="fill: #ffffff; opacity: 0.8; stroke: #cccccc; stroke-linejoin: miter"/>
    </g>
    <g id="line2d_61">
     <path d="M 587.136875 411.076875 
L 607.136875 411.076875 
L 627.136875 411.076875 
" style="fill: none; stroke: #000000; stroke-width: 2; stroke-linecap: square"/>
    </g>
    <g id="text_58">
     <!-- S-LCA -->
     <g transform="translate(643.136875 418.076875) scale(0.2 -0.2)">
      <use xlink:href="#DejaVuSans-53"/>
      <use xlink:href="#DejaVuSans-2d" x="63.476562"/>
      <use xlink:href="#DejaVuSans-4c" x="99.560547"/>
      <use xlink:href="#DejaVuSans-43" x="155.273438"/>
      <use xlink:href="#DejaVuSans-41" x="225.097656"/>
     </g>
    </g>
    <g id="line2d_62">
     <path d="M 587.136875 440.433125 
L 607.136875 440.433125 
L 627.136875 440.433125 
" style="fill: none; stroke-dasharray: 2,3.3; stroke-dashoffset: 0; stroke: #000000; stroke-width: 2"/>
    </g>
    <g id="text_59">
     <!-- FISTA -->
     <g transform="translate(643.136875 447.433125) scale(0.2 -0.2)">
      <use xlink:href="#DejaVuSans-46"/>
      <use xlink:href="#DejaVuSans-49" x="57.519531"/>
      <use xlink:href="#DejaVuSans-53" x="87.011719"/>
      <use xlink:href="#DejaVuSans-54" x="150.488281"/>
      <use xlink:href="#DejaVuSans-41" x="203.822266"/>
     </g>
    </g>
    <g id="line2d_63">
     <path d="M 587.136875 469.789375 
L 607.136875 469.789375 
L 627.136875 469.789375 
" style="fill: none; stroke-dasharray: 7.4,3.2; stroke-dashoffset: 0; stroke: #000000; stroke-width: 2"/>
    </g>
    <g id="text_60">
     <!-- ISTA -->
     <g transform="translate(643.136875 476.789375) scale(0.2 -0.2)">
      <use xlink:href="#DejaVuSans-49"/>
      <use xlink:href="#DejaVuSans-53" x="29.492188"/>
      <use xlink:href="#DejaVuSans-54" x="92.96875"/>
      <use xlink:href="#DejaVuSans-41" x="146.302734"/>
     </g>
    </g>
   </g>
  </g>
  <g id="axes_4">
   <g id="patch_20">
    <path d="M 773.91 655.72 
L 1418.4 655.72 
L 1418.4 384.88 
L 773.91 384.88 
z
" style="fill: #ffffff"/>
   </g>
   <g id="matplotlib.axis_7">
    <g id="xtick_28">
     <g id="line2d_64">
      <g>
       <use xlink:href="#mfebad99688" x="803.205" y="655.72" style="stroke: #000000; stroke-width: 0.8"/>
      </g>
     </g>
     <g id="text_61">
      <!-- 0.000 -->
      <g transform="translate(780.3025 674.8775) scale(0.16 -0.16)">
       <use xlink:href="#DejaVuSans-30"/>
       <use xlink:href="#DejaVuSans-2e" x="63.623047"/>
       <use xlink:href="#DejaVuSans-30" x="95.410156"/>
       <use xlink:href="#DejaVuSans-30" x="159.033203"/>
       <use xlink:href="#DejaVuSans-30" x="222.65625"/>
      </g>
     </g>
    </g>
    <g id="xtick_29">
     <g id="line2d_65">
      <g>
       <use xlink:href="#mfebad99688" x="876.4425" y="655.72" style="stroke: #000000; stroke-width: 0.8"/>
      </g>
     </g>
     <g id="text_62">
      <!-- 0.025 -->
      <g transform="translate(853.54 674.8775) scale(0.16 -0.16)">
       <use xlink:href="#DejaVuSans-30"/>
       <use xlink:href="#DejaVuSans-2e" x="63.623047"/>
       <use xlink:href="#DejaVuSans-30" x="95.410156"/>
       <use xlink:href="#DejaVuSans-32" x="159.033203"/>
       <use xlink:href="#DejaVuSans-35" x="222.65625"/>
      </g>
     </g>
    </g>
    <g id="xtick_30">
     <g id="line2d_66">
      <g>
       <use xlink:href="#mfebad99688" x="949.68" y="655.72" style="stroke: #000000; stroke-width: 0.8"/>
      </g>
     </g>
     <g id="text_63">
      <!-- 0.050 -->
      <g transform="translate(926.7775 674.8775) scale(0.16 -0.16)">
       <use xlink:href="#DejaVuSans-30"/>
       <use xlink:href="#DejaVuSans-2e" x="63.623047"/>
       <use xlink:href="#DejaVuSans-30" x="95.410156"/>
       <use xlink:href="#DejaVuSans-35" x="159.033203"/>
       <use xlink:href="#DejaVuSans-30" x="222.65625"/>
      </g>
     </g>
    </g>
    <g id="xtick_31">
     <g id="line2d_67">
      <g>
       <use xlink:href="#mfebad99688" x="1022.9175" y="655.72" style="stroke: #000000; stroke-width: 0.8"/>
      </g>
     </g>
     <g id="text_64">
      <!-- 0.075 -->
      <g transform="translate(1000.015 674.8775) scale(0.16 -0.16)">
       <use xlink:href="#DejaVuSans-30"/>
       <use xlink:href="#DejaVuSans-2e" x="63.623047"/>
       <use xlink:href="#DejaVuSans-30" x="95.410156"/>
       <use xlink:href="#DejaVuSans-37" x="159.033203"/>
       <use xlink:href="#DejaVuSans-35" x="222.65625"/>
      </g>
     </g>
    </g>
    <g id="xtick_32">
     <g id="line2d_68">
      <g>
       <use xlink:href="#mfebad99688" x="1096.155" y="655.72" style="stroke: #000000; stroke-width: 0.8"/>
      </g>
     </g>
     <g id="text_65">
      <!-- 0.100 -->
      <g transform="translate(1073.2525 674.8775) scale(0.16 -0.16)">
       <use xlink:href="#DejaVuSans-30"/>
       <use xlink:href="#DejaVuSans-2e" x="63.623047"/>
       <use xlink:href="#DejaVuSans-31" x="95.410156"/>
       <use xlink:href="#DejaVuSans-30" x="159.033203"/>
       <use xlink:href="#DejaVuSans-30" x="222.65625"/>
      </g>
     </g>
    </g>
    <g id="xtick_33">
     <g id="line2d_69">
      <g>
       <use xlink:href="#mfebad99688" x="1169.3925" y="655.72" style="stroke: #000000; stroke-width: 0.8"/>
      </g>
     </g>
     <g id="text_66">
      <!-- 0.125 -->
      <g transform="translate(1146.49 674.8775) scale(0.16 -0.16)">
       <use xlink:href="#DejaVuSans-30"/>
       <use xlink:href="#DejaVuSans-2e" x="63.623047"/>
       <use xlink:href="#DejaVuSans-31" x="95.410156"/>
       <use xlink:href="#DejaVuSans-32" x="159.033203"/>
       <use xlink:href="#DejaVuSans-35" x="222.65625"/>
      </g>
     </g>
    </g>
    <g id="xtick_34">
     <g id="line2d_70">
      <g>
       <use xlink:href="#mfebad99688" x="1242.63" y="655.72" style="stroke: #000000; stroke-width: 0.8"/>
      </g>
     </g>
     <g id="text_67">
      <!-- 0.150 -->
      <g transform="translate(1219.7275 674.8775) scale(0.16 -0.16)">
       <use xlink:href="#DejaVuSans-30"/>
       <use xlink:href="#DejaVuSans-2e" x="63.623047"/>
       <use xlink:href="#DejaVuSans-31" x="95.410156"/>
       <use xlink:href="#DejaVuSans-35" x="159.033203"/>
       <use xlink:href="#DejaVuSans-30" x="222.65625"/>
      </g>
     </g>
    </g>
    <g id="xtick_35">
     <g id="line2d_71">
      <g>
       <use xlink:href="#mfebad99688" x="1315.8675" y="655.72" style="stroke: #000000; stroke-width: 0.8"/>
      </g>
     </g>
     <g id="text_68">
      <!-- 0.175 -->
      <g transform="translate(1292.965 674.8775) scale(0.16 -0.16)">
       <use xlink:href="#DejaVuSans-30"/>
       <use xlink:href="#DejaVuSans-2e" x="63.623047"/>
       <use xlink:href="#DejaVuSans-31" x="95.410156"/>
       <use xlink:href="#DejaVuSans-37" x="159.033203"/>
       <use xlink:href="#DejaVuSans-35" x="222.65625"/>
      </g>
     </g>
    </g>
    <g id="xtick_36">
     <g id="line2d_72">
      <g>
       <use xlink:href="#mfebad99688" x="1389.105" y="655.72" style="stroke: #000000; stroke-width: 0.8"/>
      </g>
     </g>
     <g id="text_69">
      <!-- 0.200 -->
      <g transform="translate(1366.2025 674.8775) scale(0.16 -0.16)">
       <use xlink:href="#DejaVuSans-30"/>
       <use xlink:href="#DejaVuSans-2e" x="63.623047"/>
       <use xlink:href="#DejaVuSans-32" x="95.410156"/>
       <use xlink:href="#DejaVuSans-30" x="159.033203"/>
       <use xlink:href="#DejaVuSans-30" x="222.65625"/>
      </g>
     </g>
    </g>
    <g id="text_70">
     <!-- Time (s) -->
     <g transform="translate(1059.562969 695.882187) scale(0.18 -0.18)">
      <use xlink:href="#DejaVuSans-54"/>
      <use xlink:href="#DejaVuSans-69" x="57.958984"/>
      <use xlink:href="#DejaVuSans-6d" x="85.742188"/>
      <use xlink:href="#DejaVuSans-65" x="183.154297"/>
      <use xlink:href="#DejaVuSans-20" x="244.677734"/>
      <use xlink:href="#DejaVuSans-28" x="276.464844"/>
      <use xlink:href="#DejaVuSans-73" x="315.478516"/>
      <use xlink:href="#DejaVuSans-29" x="367.578125"/>
     </g>
    </g>
   </g>
   <g id="matplotlib.axis_8">
    <g id="ytick_19">
     <g id="line2d_73">
      <g>
       <use xlink:href="#m75b749ab5a" x="773.91" y="615.696897" style="stroke: #000000; stroke-width: 0.8"/>
      </g>
     </g>
     <g id="text_71">
      <!-- 0.2 -->
      <g transform="translate(741.465 621.775647) scale(0.16 -0.16)">
       <use xlink:href="#DejaVuSans-30"/>
       <use xlink:href="#DejaVuSans-2e" x="63.623047"/>
       <use xlink:href="#DejaVuSans-32" x="95.410156"/>
      </g>
     </g>
    </g>
    <g id="ytick_20">
     <g id="line2d_74">
      <g>
       <use xlink:href="#m75b749ab5a" x="773.91" y="574.724687" style="stroke: #000000; stroke-width: 0.8"/>
      </g>
     </g>
     <g id="text_72">
      <!-- 0.4 -->
      <g transform="translate(741.465 580.803437) scale(0.16 -0.16)">
       <use xlink:href="#DejaVuSans-30"/>
       <use xlink:href="#DejaVuSans-2e" x="63.623047"/>
       <use xlink:href="#DejaVuSans-34" x="95.410156"/>
      </g>
     </g>
    </g>
    <g id="ytick_21">
     <g id="line2d_75">
      <g>
       <use xlink:href="#m75b749ab5a" x="773.91" y="533.752477" style="stroke: #000000; stroke-width: 0.8"/>
      </g>
     </g>
     <g id="text_73">
      <!-- 0.6 -->
      <g transform="translate(741.465 539.831227) scale(0.16 -0.16)">
       <use xlink:href="#DejaVuSans-30"/>
       <use xlink:href="#DejaVuSans-2e" x="63.623047"/>
       <use xlink:href="#DejaVuSans-36" x="95.410156"/>
      </g>
     </g>
    </g>
    <g id="ytick_22">
     <g id="line2d_76">
      <g>
       <use xlink:href="#m75b749ab5a" x="773.91" y="492.780267" style="stroke: #000000; stroke-width: 0.8"/>
      </g>
     </g>
     <g id="text_74">
      <!-- 0.8 -->
      <g transform="translate(741.465 498.859017) scale(0.16 -0.16)">
       <use xlink:href="#DejaVuSans-30"/>
       <use xlink:href="#DejaVuSans-2e" x="63.623047"/>
       <use xlink:href="#DejaVuSans-38" x="95.410156"/>
      </g>
     </g>
    </g>
    <g id="ytick_23">
     <g id="line2d_77">
      <g>
       <use xlink:href="#m75b749ab5a" x="773.91" y="451.808057" style="stroke: #000000; stroke-width: 0.8"/>
      </g>
     </g>
     <g id="text_75">
      <!-- 1.0 -->
      <g transform="translate(741.465 457.886807) scale(0.16 -0.16)">
       <use xlink:href="#DejaVuSans-31"/>
       <use xlink:href="#DejaVuSans-2e" x="63.623047"/>
       <use xlink:href="#DejaVuSans-30" x="95.410156"/>
      </g>
     </g>
    </g>
    <g id="ytick_24">
     <g id="line2d_78">
      <g>
       <use xlink:href="#m75b749ab5a" x="773.91" y="410.835847" style="stroke: #000000; stroke-width: 0.8"/>
      </g>
     </g>
     <g id="text_76">
      <!-- 1.2 -->
      <g transform="translate(741.465 416.914597) scale(0.16 -0.16)">
       <use xlink:href="#DejaVuSans-31"/>
       <use xlink:href="#DejaVuSans-2e" x="63.623047"/>
       <use xlink:href="#DejaVuSans-32" x="95.410156"/>
      </g>
     </g>
    </g>
   </g>
   <g id="line2d_79">
    <path d="M 803.205 397.822338 
L 817.29478 532.282717 
L 818.468928 548.143615 
L 820.817224 606.282539 
L 821.991373 623.839293 
L 823.165521 630.403535 
L 824.339669 634.522252 
L 825.513818 637.094193 
L 826.687966 638.750961 
L 827.862114 640.182672 
L 829.036263 640.777985 
L 830.210411 641.607371 
L 831.384559 642.210834 
L 832.558707 642.443516 
L 833.732856 642.482688 
L 834.907004 642.246556 
L 836.081152 642.519455 
L 837.255301 642.98203 
L 838.429449 642.664312 
L 843.126042 642.939953 
L 846.648487 643.139935 
L 847.822635 642.777843 
L 848.996784 643.058711 
L 850.170932 643.124438 
L 851.34508 643.353974 
L 852.519228 643.358589 
L 853.693377 643.17565 
L 856.041673 643.273042 
L 857.215822 643.195736 
L 858.38997 643.330272 
L 860.738267 643.360607 
L 861.912415 643.140833 
L 864.260711 643.506474 
L 865.43486 643.213923 
L 866.609008 643.406759 
L 867.783156 643.260267 
L 868.957305 643.406563 
L 871.305601 643.230591 
L 872.479749 643.470094 
L 873.653898 643.214468 
L 874.828046 643.516432 
L 876.002194 643.326605 
L 877.176343 643.479521 
L 878.350491 643.46939 
L 879.524639 643.205012 
L 880.698788 643.452545 
L 883.047084 643.359007 
L 884.221232 643.444322 
L 885.395381 643.2702 
L 886.569529 643.52564 
L 887.743677 643.313933 
L 888.917826 643.504385 
L 891.266122 643.285626 
L 892.440271 643.401092 
L 894.788567 643.417221 
L 895.962715 643.474987 
L 897.136864 643.35399 
L 898.311012 643.508323 
L 899.48516 643.351807 
L 900.659309 643.525723 
L 903.007605 643.376813 
L 904.181754 643.5003 
L 905.355902 643.383956 
L 906.53005 643.452318 
L 908.878347 643.440966 
L 910.052495 643.501277 
L 911.226643 643.380717 
L 912.400792 643.517966 
L 913.57494 643.333063 
L 915.923236 643.456152 
L 920.61983 643.440361 
L 924.142275 643.504446 
L 925.316423 643.397646 
L 927.664719 643.443984 
L 938.232054 643.440887 
L 940.580351 643.428442 
L 958.192575 643.439535 
L 962.889168 643.455243 
L 967.585762 643.484412 
L 968.75991 643.416846 
L 971.108206 643.440893 
L 1021.596583 643.410041 
L 1022.770731 643.511053 
L 1025.119028 643.420391 
L 1028.641473 643.457708 
L 1068.562515 643.477355 
L 1070.910812 643.443613 
L 1209.460311 643.441396 
L 1215.331052 643.446566 
L 1224.724238 643.447481 
L 1236.465721 643.435145 
L 1241.162315 643.447713 
L 1247.033056 643.426758 
L 1257.600391 643.459694 
L 1261.122836 643.412588 
L 1264.645281 643.42544 
L 1268.167725 643.458418 
L 1275.212615 643.429635 
L 1279.909208 643.446396 
L 1389.105 643.429142 
L 1389.105 643.429142 
" clip-path="url(#p132f676d5b)" style="fill: none; stroke: #000000; stroke-width: 2; stroke-linecap: square"/>
   </g>
   <g id="line2d_80">
    <path d="M 803.205 397.822338 
L 836.081152 586.191242 
L 837.255301 591.745703 
L 838.429449 595.687712 
L 839.603597 598.602536 
L 840.777745 600.781502 
L 841.951894 602.433952 
L 844.30019 605.197479 
L 868.957305 630.098729 
L 871.305601 632.131694 
L 873.653898 633.669425 
L 876.002194 634.879951 
L 881.872936 637.38005 
L 900.659309 644.470743 
L 904.181754 645.623022 
L 906.53005 646.183277 
L 911.226643 646.924308 
L 928.838868 649.288869 
L 937.057906 650.230052 
L 941.754499 650.535233 
L 960.540872 651.346101 
L 972.282355 651.712266 
L 998.113617 651.96896 
L 1016.89999 651.991701 
L 1085.000591 651.798204 
L 1168.36512 651.633364 
L 1303.392174 651.669551 
L 1389.105 651.667133 
L 1389.105 651.667133 
" clip-path="url(#p132f676d5b)" style="fill: none; stroke-dasharray: 2,3.3; stroke-dashoffset: 0; stroke: #000000; stroke-width: 2"/>
   </g>
   <g id="line2d_81">
    <path d="M 803.205 397.822338 
L 837.255301 588.997278 
L 838.429449 593.85542 
L 839.603597 597.540584 
L 840.777745 599.94593 
L 841.951894 601.544429 
L 846.648487 607.007397 
L 870.131453 630.953904 
L 871.305601 631.997294 
L 872.479749 632.85852 
L 874.828046 633.944309 
L 880.698788 636.100962 
L 886.569529 638.05696 
L 904.181754 643.38725 
L 907.704198 644.06284 
L 914.749088 645.041722 
L 932.361313 647.271447 
L 938.232054 647.88491 
L 947.62524 648.468907 
L 971.108206 649.723453 
L 991.068727 650.287773 
L 1008.680952 650.673822 
L 1048.601994 651.149691 
L 1097.916222 651.429022 
L 1180.106603 651.589636 
L 1353.880551 651.661219 
L 1389.105 651.663637 
L 1389.105 651.663637 
" clip-path="url(#p132f676d5b)" style="fill: none; stroke-dasharray: 7.4,3.2; stroke-dashoffset: 0; stroke: #000000; stroke-width: 2"/>
   </g>
   <g id="patch_21">
    <path d="M 773.91 655.72 
L 773.91 384.88 
" style="fill: none; stroke: #000000; stroke-width: 0.8; stroke-linejoin: miter; stroke-linecap: square"/>
   </g>
   <g id="patch_22">
    <path d="M 1418.4 655.72 
L 1418.4 384.88 
" style="fill: none; stroke: #000000; stroke-width: 0.8; stroke-linejoin: miter; stroke-linecap: square"/>
   </g>
   <g id="patch_23">
    <path d="M 773.91 655.72 
L 1418.4 655.72 
" style="fill: none; stroke: #000000; stroke-width: 0.8; stroke-linejoin: miter; stroke-linecap: square"/>
   </g>
   <g id="patch_24">
    <path d="M 773.91 384.88 
L 1418.4 384.88 
" style="fill: none; stroke: #000000; stroke-width: 0.8; stroke-linejoin: miter; stroke-linecap: square"/>
   </g>
   <g id="text_77">
    <!-- 15 fixed, 1000 random coefficients -->
    <g transform="translate(886.464375 378.88) scale(0.24 -0.24)">
     <use xlink:href="#DejaVuSans-31"/>
     <use xlink:href="#DejaVuSans-35" x="63.623047"/>
     <use xlink:href="#DejaVuSans-20" x="127.246094"/>
     <use xlink:href="#DejaVuSans-66" x="159.033203"/>
     <use xlink:href="#DejaVuSans-69" x="194.238281"/>
     <use xlink:href="#DejaVuSans-78" x="222.021484"/>
     <use xlink:href="#DejaVuSans-65" x="278.076172"/>
     <use xlink:href="#DejaVuSans-64" x="339.599609"/>
     <use xlink:href="#DejaVuSans-2c" x="403.076172"/>
     <use xlink:href="#DejaVuSans-20" x="434.863281"/>
     <use xlink:href="#DejaVuSans-31" x="466.650391"/>
     <use xlink:href="#DejaVuSans-30" x="530.273438"/>
     <use xlink:href="#DejaVuSans-30" x="593.896484"/>
     <use xlink:href="#DejaVuSans-30" x="657.519531"/>
     <use xlink:href="#DejaVuSans-20" x="721.142578"/>
     <use xlink:href="#DejaVuSans-72" x="752.929688"/>
     <use xlink:href="#DejaVuSans-61" x="794.042969"/>
     <use xlink:href="#DejaVuSans-6e" x="855.322266"/>
     <use xlink:href="#DejaVuSans-64" x="918.701172"/>
     <use xlink:href="#DejaVuSans-6f" x="982.177734"/>
     <use xlink:href="#DejaVuSans-6d" x="1043.359375"/>
     <use xlink:href="#DejaVuSans-20" x="1140.771484"/>
     <use xlink:href="#DejaVuSans-63" x="1172.558594"/>
     <use xlink:href="#DejaVuSans-6f" x="1227.539062"/>
     <use xlink:href="#DejaVuSans-65" x="1288.720703"/>
     <use xlink:href="#DejaVuSans-66" x="1350.244141"/>
     <use xlink:href="#DejaVuSans-66" x="1385.449219"/>
     <use xlink:href="#DejaVuSans-69" x="1420.654297"/>
     <use xlink:href="#DejaVuSans-63" x="1448.4375"/>
     <use xlink:href="#DejaVuSans-69" x="1503.417969"/>
     <use xlink:href="#DejaVuSans-65" x="1531.201172"/>
     <use xlink:href="#DejaVuSans-6e" x="1592.724609"/>
     <use xlink:href="#DejaVuSans-74" x="1656.103516"/>
     <use xlink:href="#DejaVuSans-73" x="1695.3125"/>
    </g>
   </g>
   <g id="legend_4">
    <g id="patch_25">
     <path d="M 1281.696875 488.94875 
L 1404.4 488.94875 
Q 1408.4 488.94875 1408.4 484.94875 
L 1408.4 398.88 
Q 1408.4 394.88 1404.4 394.88 
L 1281.696875 394.88 
Q 1277.696875 394.88 1277.696875 398.88 
L 1277.696875 484.94875 
Q 1277.696875 488.94875 1281.696875 488.94875 
z
" style="fill: #ffffff; opacity: 0.8; stroke: #cccccc; stroke-linejoin: miter"/>
    </g>
    <g id="line2d_82">
     <path d="M 1285.696875 411.076875 
L 1305.696875 411.076875 
L 1325.696875 411.076875 
" style="fill: none; stroke: #000000; stroke-width: 2; stroke-linecap: square"/>
    </g>
    <g id="text_78">
     <!-- S-LCA -->
     <g transform="translate(1341.696875 418.076875) scale(0.2 -0.2)">
      <use xlink:href="#DejaVuSans-53"/>
      <use xlink:href="#DejaVuSans-2d" x="63.476562"/>
      <use xlink:href="#DejaVuSans-4c" x="99.560547"/>
      <use xlink:href="#DejaVuSans-43" x="155.273438"/>
      <use xlink:href="#DejaVuSans-41" x="225.097656"/>
     </g>
    </g>
    <g id="line2d_83">
     <path d="M 1285.696875 440.433125 
L 1305.696875 440.433125 
L 1325.696875 440.433125 
" style="fill: none; stroke-dasharray: 2,3.3; stroke-dashoffset: 0; stroke: #000000; stroke-width: 2"/>
    </g>
    <g id="text_79">
     <!-- FISTA -->
     <g transform="translate(1341.696875 447.433125) scale(0.2 -0.2)">
      <use xlink:href="#DejaVuSans-46"/>
      <use xlink:href="#DejaVuSans-49" x="57.519531"/>
      <use xlink:href="#DejaVuSans-53" x="87.011719"/>
      <use xlink:href="#DejaVuSans-54" x="150.488281"/>
      <use xlink:href="#DejaVuSans-41" x="203.822266"/>
     </g>
    </g>
    <g id="line2d_84">
     <path d="M 1285.696875 469.789375 
L 1305.696875 469.789375 
L 1325.696875 469.789375 
" style="fill: none; stroke-dasharray: 7.4,3.2; stroke-dashoffset: 0; stroke: #000000; stroke-width: 2"/>
    </g>
    <g id="text_80">
     <!-- ISTA -->
     <g transform="translate(1341.696875 476.789375) scale(0.2 -0.2)">
      <use xlink:href="#DejaVuSans-49"/>
      <use xlink:href="#DejaVuSans-53" x="29.492188"/>
      <use xlink:href="#DejaVuSans-54" x="92.96875"/>
      <use xlink:href="#DejaVuSans-41" x="146.302734"/>
     </g>
    </g>
   </g>
  </g>
 </g>
 <defs>
  <clipPath id="p14c2163c9c">
   <rect x="75.35" y="46.32" width="644.49" height="270.84"/>
  </clipPath>
  <clipPath id="p141365bf7b">
   <rect x="773.91" y="46.32" width="644.49" height="270.84"/>
  </clipPath>
  <clipPath id="p860f32d607">
   <rect x="75.35" y="384.88" width="644.49" height="270.84"/>
  </clipPath>
  <clipPath id="p132f676d5b">
   <rect x="773.91" y="384.88" width="644.49" height="270.84"/>
  </clipPath>
 </defs>
</svg>
